<svg width="96" height="96" fill="none" xmlns="http://www.w3.org/2000/svg"><path fill="#3B3B3B" d="M0 0h96v96H0z"/><path d="M42 62a1 1 0 100-2 1 1 0 000 2zm12 0a1 1 0 100-2 1 1 0 000 2zM32 35h4.727l3.168 16.96a2.57 2.57 0 00.836 1.48c.432.373.973.57 1.527.56h11.487a2.264 2.264 0 001.528-.56 2.57 2.57 0 00.836-1.48L58 41.333H37.91" stroke="#fff" stroke-width="2" stroke-linecap="round" stroke-linejoin="round"/><circle cx="58.5" cy="35.5" r="11.5" fill="#397345"/><path d="M61.282 35.777c0 .645-.121 1.221-.363 1.727a2.952 2.952 0 01-.99 1.177 2.472 2.472 0 01-1.43.429 2.472 2.472 0 01-1.43-.429 2.952 2.952 0 01-.99-1.177c-.242-.506-.363-1.082-.363-1.727s.12-1.217.363-1.716c.242-.506.572-.902.99-1.188a2.43 2.43 0 011.43-.44c.535 0 1.012.147 1.43.44.418.286.748.682.99 1.188.242.499.363 1.07.363 1.716zm-.98 0c0-.484-.076-.91-.23-1.276a2.033 2.033 0 00-.638-.858 1.508 1.508 0 00-.935-.308c-.36 0-.675.103-.946.308a2.033 2.033 0 00-.638.858c-.154.367-.231.792-.231 1.276s.077.91.23 1.276c.155.36.367.642.639.847.27.205.586.308.946.308.352 0 .663-.103.935-.308.27-.205.484-.488.638-.847.154-.367.23-.792.23-1.276z" fill="#fff"/></svg>