<svg width="50" height="50" fill="none" xmlns="http://www.w3.org/2000/svg"><path d="M12.734 18.734c-5.164 0-9.367-4.203-9.367-9.367 0-2.5.977-4.851 2.742-6.625A9.334 9.334 0 0112.734 0c2.5 0 4.852.977 6.625 2.742a9.301 9.301 0 012.743 6.625 9.308 9.308 0 01-2.688 6.563.754.754 0 01-1.07.008.755.755 0 01-.008-1.07 7.774 7.774 0 002.25-5.493 7.84 7.84 0 00-2.297-5.555 7.793 7.793 0 00-5.555-2.297c-2.093 0-4.07.82-5.554 2.297a7.8 7.8 0 00-2.305 5.555c0 4.328 3.523 7.852 7.852 7.852.757 0 1.492-.11 2.195-.313a.76.76 0 01.945.508.767.767 0 01-.508.945 9.429 9.429 0 01-2.625.367zm14.625 6.68a.759.759 0 01-.703-.477l-1.593-3.984a1.453 1.453 0 00-1.899-.812 1.462 1.462 0 00-.82 1.898.757.757 0 11-1.406.563 2.926 2.926 0 01.03-2.282 2.944 2.944 0 011.634-1.593 2.989 2.989 0 013.875 1.656l1.593 3.984a.754.754 0 01-.422.985.645.645 0 01-.289.062z" fill="#397345"/><path d="M31.172 25.047a.759.759 0 01-.703-.477l-1.078-2.703a1.103 1.103 0 00-.578-.593 1.052 1.052 0 00-.829-.008c-.265.11-.476.312-.593.578-.11.265-.117.562-.008.828a.754.754 0 01-.422.984.754.754 0 01-.984-.421A2.57 2.57 0 0126 21.25a2.586 2.586 0 011.422-1.39 2.57 2.57 0 011.984.023c.64.273 1.133.781 1.39 1.422l1.08 2.703a.754.754 0 01-.704 1.039z" fill="#397345"/><path d="M28.07 44.93a.745.745 0 01-.554-.242c-3.977-4.305-9.672-4.633-12.72-4.446a2.772 2.772 0 01-2.757-1.734c-.469-1.133-.18-2.39.734-3.187 2.102-1.844 5.922-1.946 7.891-1.86L13.72 16.094a2.84 2.84 0 01.031-2.219 2.906 2.906 0 011.594-1.554 2.84 2.84 0 012.219.03c.71.305 1.265.868 1.546 1.587l4.375 10.953a.757.757 0 11-1.406.563L17.703 14.5a1.36 1.36 0 00-.742-.758 1.39 1.39 0 00-1.063-.015 1.36 1.36 0 00-.757.742 1.391 1.391 0 00-.016 1.063l7.39 18.492a.747.747 0 01-.1.742.769.769 0 01-.696.289c-.055-.008-5.61-.664-7.953 1.398-.508.446-.508 1.055-.336 1.477.172.414.578.844 1.265.805 3.211-.196 9.196.14 13.563 4.554L40.234 38.5l-6.172-15.476a1.083 1.083 0 00-1.406-.602l-.21.086a1.083 1.083 0 00-.602 1.406.754.754 0 01-.422.985.754.754 0 01-.985-.422 2.57 2.57 0 01.024-1.985 2.586 2.586 0 011.422-1.39l.21-.086a2.6 2.6 0 013.376 1.445l6.46 16.164a.742.742 0 01-.007.578.754.754 0 01-.414.407l-13.156 5.257a.732.732 0 01-.282.063z" fill="#397345"/><path d="M30.102 50a.777.777 0 01-.297-.063.754.754 0 01-.407-.414l-2.03-5.07a.754.754 0 01.421-.984.754.754 0 01.984.422l1.75 4.367 11.75-4.696-1.75-4.367a.754.754 0 01.422-.984.754.754 0 01.985.422l2.03 5.07a.754.754 0 01-.42.984l-13.157 5.258a.72.72 0 01-.281.055zm7.164-31.266c-5.164 0-9.368-4.203-9.368-9.367C27.898 4.203 32.102 0 37.266 0c5.164 0 9.367 4.203 9.367 9.367 0 5.164-4.203 9.367-9.367 9.367zm0-17.218c-4.328 0-7.852 3.523-7.852 7.851 0 4.328 3.523 7.852 7.852 7.852 4.328 0 7.851-3.524 7.851-7.852s-3.523-7.851-7.851-7.851z" fill="#397345"/><path d="M33.164 14.227a.754.754 0 01-.54-1.29l8.212-8.21a.755.755 0 011.07 0 .755.755 0 010 1.07l-8.21 8.21a.75.75 0 01-.532.22z" fill="#397345"/><path d="M41.375 14.227a.756.756 0 01-.54-.22l-8.21-8.21a.754.754 0 010-1.07.754.754 0 011.07 0l8.211 8.21a.754.754 0 01-.531 1.29zm-30.492-.586a.776.776 0 01-.54-.22l-3.335-3.335a.754.754 0 010-1.07.754.754 0 011.07 0l2.805 2.804 6.5-6.5a.754.754 0 011.07 0 .754.754 0 010 1.07l-7.039 7.04a.757.757 0 01-.531.21z" fill="#397345"/></svg>