<svg width="50" height="50" fill="none" xmlns="http://www.w3.org/2000/svg"><g clip-path="url(#clip0_3300_11540)" fill="#397345"><path fill-rule="evenodd" clip-rule="evenodd" d="M42.969 5.469A5.47 5.47 0 0037.499 0H14.062a5.469 5.469 0 00-5.469 5.469V7.03a.781.781 0 00.781.782h32.813a.781.781 0 00.781-.782V5.47zm-1.563 0v.781h-31.25v-.781a3.907 3.907 0 013.906-3.907h23.437a3.906 3.906 0 013.907 3.907z"/><path fill-rule="evenodd" clip-rule="evenodd" d="M35.133.971A.782.782 0 0034.375 0H17.187a.781.781 0 00-.757.971l.484 1.942a2.345 2.345 0 002.275 1.775h13.184a2.345 2.345 0 002.274-1.775L35.133.97zm-1.759.592l-.243.97a.78.78 0 01-.758.592H19.19a.78.78 0 01-.758-.591l-.244-.971h15.187zM17.967 28.905a.781.781 0 00-.78-.781H7.812a.781.781 0 00-.782.781v6.25A2.344 2.344 0 009.374 37.5h6.25a2.343 2.343 0 002.344-2.344v-6.25zm-1.56.782v5.468a.781.781 0 01-.782.782h-6.25a.781.781 0 01-.781-.782v-5.468h7.812zm15.234 6.25H21.094a.781.781 0 100 1.562H31.64a.781.781 0 100-1.563zm-23.438 6.25a3.908 3.908 0 00-3.905 3.906A3.908 3.908 0 008.204 50a3.908 3.908 0 003.906-3.906 3.908 3.908 0 00-3.906-3.907zm0 1.562a2.346 2.346 0 012.345 2.344 2.346 2.346 0 01-4.001 1.657 2.344 2.344 0 011.657-4.001zm19.14-1.563a3.908 3.908 0 00-3.905 3.907A3.908 3.908 0 0027.345 50a3.907 3.907 0 00-.001-7.813zm0 1.563a2.344 2.344 0 110 4.687 2.344 2.344 0 010-4.687z"/><path fill-rule="evenodd" clip-rule="evenodd" d="M7.031 29.688H17.97a.781.781 0 100-1.563H7.03a.781.781 0 100 1.563z"/><path fill-rule="evenodd" clip-rule="evenodd" d="M14.844 28.906a.781.781 0 00-.781-.781h-3.126a.781.781 0 00-.78.781v2.735a1.954 1.954 0 001.952 1.953h.782a1.953 1.953 0 001.953-1.953v-2.735zm-1.563.782v1.953a.391.391 0 01-.39.39h-.782a.392.392 0 01-.39-.39v-1.953h1.562zm28.775 20.296a.78.78 0 00.904-.54 35.933 35.933 0 014.995-10.275v-.001a6.994 6.994 0 001.264-4.02c0-3.88-3.151-7.03-7.032-7.03a7.035 7.035 0 00-7.03 7.03 6.79 6.79 0 001.288 4.012 35.931 35.931 0 014.994 10.276.74.74 0 00.617.548zm.146-3.186a37.489 37.489 0 00-4.482-8.541l-.008-.012c-.652-.9-1-1.985-.993-3.097a5.472 5.472 0 015.468-5.468 5.472 5.472 0 015.47 5.468 5.444 5.444 0 01-.982 3.125 37.442 37.442 0 00-4.473 8.525z"/><path fill-rule="evenodd" clip-rule="evenodd" d="M42.187 32.031a3.126 3.126 0 10.001 6.252 3.126 3.126 0 00-.001-6.252zm0 1.563a1.562 1.562 0 110 3.124 1.562 1.562 0 01-.001-3.124zM31.25 10.156a7.815 7.815 0 00-7.813 7.813c0 4.31 3.5 7.812 7.813 7.812a7.817 7.817 0 007.813-7.812 7.816 7.816 0 00-7.813-7.813zm0 1.563c3.45 0 6.25 2.8 6.25 6.25 0 3.449-2.8 6.249-6.25 6.249s-6.25-2.8-6.25-6.25 2.8-6.25 6.25-6.25z"/><path fill-rule="evenodd" clip-rule="evenodd" d="M30.469 10.938V12.5a.781.781 0 101.562 0v-1.563a.781.781 0 10-1.562 0zm5.2 1.506l-1.105 1.105a.781.781 0 001.105 1.105l1.104-1.105a.78.78 0 00-1.104-1.104zm2.612 4.743H36.72a.781.781 0 100 1.563h1.562a.781.781 0 100-1.563zm-1.508 5.201l-1.104-1.104a.781.781 0 00-1.105 1.104l1.105 1.105a.78.78 0 101.105-1.105zm-6.304 1.05V25a.781.781 0 101.562 0v-1.563a.781.781 0 10-1.562 0zm-3.639-2.154l-1.104 1.104a.781.781 0 101.105 1.106l1.104-1.106a.781.781 0 00-1.104-1.104zm-1.049-4.096H24.22a.781.781 0 100 1.562h1.562a.781.781 0 100-1.563zm2.153-3.638l-1.104-1.105a.782.782 0 00-1.105 1.105l1.105 1.105a.782.782 0 001.104-1.105z"/><path d="M31.25 18.75a.781.781 0 100-1.563.781.781 0 000 1.563z"/><path fill-rule="evenodd" clip-rule="evenodd" d="M8.594 7.031v15.625a.781.781 0 101.562 0V7.031a.781.781 0 00-1.562 0zm32.812 0v21.875a.781.781 0 001.563 0V7.031a.781.781 0 00-1.563 0z"/><path fill-rule="evenodd" clip-rule="evenodd" d="M6.137 44.531c.19 0 .374-.07.517-.195a2.333 2.333 0 011.55-.586 2.33 2.33 0 011.548.586.782.782 0 00.518.195h10.824a.781.781 0 00.781-.781V24.219a2.341 2.341 0 00-2.344-2.344H5.47a2.341 2.341 0 00-2.344 2.344V43.75a.781.781 0 00.781.781h2.23zM5.86 42.97H4.687V24.22a.78.78 0 01.782-.782H19.53a.78.78 0 01.782.782v18.75h-9.767a3.885 3.885 0 00-2.343-.782 3.884 3.884 0 00-2.343.782z"/><path fill-rule="evenodd" clip-rule="evenodd" d="M25.277 44.531c.19 0 .374-.07.517-.195a2.333 2.333 0 011.55-.586c.593 0 1.136.221 1.549.586a.783.783 0 00.517.195h2.621a.781.781 0 00.781-.781v-6.627c0-.398-.101-.79-.295-1.138l-3.262-5.873a2.343 2.343 0 00-2.05-1.206h-6.111a.781.781 0 00-.782.782V43.75a.781.781 0 00.782.781h4.183zm-.276-1.562h-3.126v-12.5h5.33a.78.78 0 01.683.401l3.263 5.875a.772.772 0 01.099.378v5.846h-1.563a3.885 3.885 0 00-2.343-.782A3.885 3.885 0 0025 42.97zm-16.798-.782a3.908 3.908 0 00-3.905 3.907A3.908 3.908 0 008.204 50a3.908 3.908 0 003.906-3.906 3.908 3.908 0 00-3.906-3.907zm0 1.563a2.346 2.346 0 012.345 2.344 2.346 2.346 0 01-4.001 1.657 2.344 2.344 0 011.657-4.001z"/><path fill-rule="evenodd" clip-rule="evenodd" d="M29.41 42.969a.78.78 0 00-.517 1.367 2.339 2.339 0 01.72 2.344.782.782 0 00.757.976h2.47a2.318 2.318 0 002.316-2.317v-.002a2.366 2.366 0 00-2.368-2.368H29.41zm-19.14 0a.78.78 0 00-.518 1.367 2.34 2.34 0 01.721 2.342.783.783 0 00.757.976l13.087.002a.781.781 0 00.756-.976 2.34 2.34 0 01.721-2.344.78.78 0 00-.517-1.367H10.27zm-3.616 1.367a.78.78 0 00-.517-1.367H3.128a2.344 2.344 0 00-2.347 2.347v.001a2.336 2.336 0 002.336 2.337h2.059a.782.782 0 00.757-.976 2.34 2.34 0 01.72-2.342zm24.596 1.758c0-.556-.116-1.084-.325-1.563h1.863a.808.808 0 01.806.806v.002a.756.756 0 01-.755.755H31.25zm-7.813-.001H12.11c0-.556-.116-1.084-.325-1.562h11.98a3.883 3.883 0 00-.326 1.562zm-19.14-.002h-1.18a.774.774 0 01-.773-.773v-.002a.785.785 0 01.784-.785h1.494a3.89 3.89 0 00-.325 1.56z"/></g><defs><clipPath id="clip0_3300_11540"><path fill="#fff" d="M0 0h50v50H0z"/></clipPath></defs></svg>