<svg width="96" height="96" fill="none" xmlns="http://www.w3.org/2000/svg"><path fill="#397345" d="M0 0h96v96H0z"/><path d="M58.788 39.147a7.333 7.333 0 00-10.373 0l-1.413 1.413-1.414-1.413A7.335 7.335 0 1035.215 49.52l1.413 1.413 10.373 10.374 10.374-10.374 1.413-1.413a7.333 7.333 0 000-10.373v0z" stroke="#fff" stroke-width="2" stroke-linecap="round" stroke-linejoin="round"/><circle cx="60" cy="36" r="11" fill="#3B3B3B"/><path d="M59.697 38.12V39h-3.95v-.88h1.563v-4.29a1.491 1.491 0 01-.308.286 4.03 4.03 0 01-.473.275 4.037 4.037 0 01-.528.22 1.741 1.741 0 01-.484.077v-.924c.161 0 .337-.044.528-.132a4.823 4.823 0 001.034-.682c.132-.11.209-.187.23-.231h.99v5.401h1.398zm3.148 2.519c-.557 0-1.06-.132-1.507-.396a2.593 2.593 0 01-1.012-1.056l.605-.528c.205.337.477.609.814.814.345.205.715.308 1.11.308.338 0 .639-.073.903-.22.264-.147.473-.348.627-.605.154-.264.23-.565.23-.902 0-.33-.076-.62-.23-.869a1.542 1.542 0 00-.605-.583 1.707 1.707 0 00-.847-.209c-.315 0-.612.07-.891.209a1.8 1.8 0 00-.671.594h-.87l.88-4.477h3.796v.891h-3.08l-.473 2.486c.161-.169.363-.3.605-.396.25-.103.524-.154.825-.154.484 0 .917.106 1.298.319.389.213.693.506.913.88.227.374.34.807.34 1.298 0 .513-.124.964-.373 1.353a2.43 2.43 0 01-.99.913c-.418.22-.884.33-1.397.33z" fill="#fff"/></svg>