<svg width="38" height="37" fill="none" xmlns="http://www.w3.org/2000/svg"><rect width="37.363" height="36.282" rx="18.141" fill="#fff"/><path d="M18.681 10.71h3.827c.9 0 1.35.218 1.688.328.45.218.787.328 1.125.655.338.328.563.656.675 1.093.113.328.225.765.338 1.64v7.431c0 .874-.225 1.311-.338 1.64-.225.436-.337.764-.675 1.092-.338.328-.675.546-1.125.656-.338.109-.788.218-1.688.328h-7.653c-.9 0-1.35-.22-1.688-.328-.45-.219-.788-.328-1.125-.656-.338-.328-.563-.656-.676-1.093-.112-.328-.225-.765-.337-1.64v-7.43c0-.875.225-1.312.337-1.64.225-.437.338-.765.676-1.093.337-.327.675-.546 1.125-.655.338-.11.788-.219 1.688-.328h3.826zm0-1.64h-3.826a5.792 5.792 0 00-2.25.438 4.929 4.929 0 00-1.689 1.093c-.563.546-.788.983-1.125 1.639-.225.546-.338 1.202-.45 2.185v7.432c0 .983.225 1.64.45 2.186a4.764 4.764 0 001.125 1.639c.563.546 1.013.765 1.688 1.093.563.218 1.238.327 2.251.437h7.653a5.791 5.791 0 002.25-.437 4.929 4.929 0 001.689-1.093c.562-.547.787-.984 1.125-1.64.225-.546.338-1.202.45-2.185v-7.432c0-.984-.225-1.64-.45-2.186a4.763 4.763 0 00-1.125-1.64c-.563-.546-1.013-.764-1.689-1.092-.562-.219-1.238-.328-2.25-.437H18.68z" fill="#0B0B0B"/><path d="M18.681 13.442c-2.7 0-4.839 2.076-4.839 4.7 0 2.622 2.138 4.698 4.84 4.698 2.7 0 4.838-2.076 4.838-4.699 0-2.623-2.138-4.7-4.839-4.7zm0 7.76c-1.688 0-3.15-1.312-3.15-3.06 0-1.64 1.35-3.06 3.15-3.06 1.688 0 3.151 1.31 3.151 3.06 0 1.638-1.463 3.06-3.15 3.06zm4.952-6.777c.622 0 1.125-.489 1.125-1.092 0-.604-.503-1.093-1.125-1.093-.621 0-1.125.49-1.125 1.093s.504 1.092 1.125 1.092z" fill="#0B0B0B"/></svg>