<svg width="15" height="22" fill="none" xmlns="http://www.w3.org/2000/svg"><g clip-path="url(#clip0_1_89)"><path d="M7.5 10.694c1.726 0 3.125-1.328 3.125-2.966 0-1.639-1.4-2.967-3.125-2.967-1.726 0-3.125 1.328-3.125 2.967 0 1.638 1.4 2.966 3.125 2.966z" stroke="#fff" stroke-width="1.125" stroke-linecap="round" stroke-linejoin="round"/><path fill-rule="evenodd" clip-rule="evenodd" d="M7.5 1.563c-3.982 0-7.363 4.091-5.326 8.97 1.085 2.598 2.535 5.39 3.718 7.54A118.862 118.862 0 007.5 20.9l.12-.203c.374-.642.897-1.551 1.488-2.625 1.183-2.149 2.633-4.941 3.718-7.539 2.037-4.879-1.344-8.97-5.326-8.97zM7.5 22l-.48.292-.012-.018-.031-.052a91.703 91.703 0 01-.567-.958 113.74 113.74 0 01-1.503-2.649c-1.191-2.163-2.664-4.996-3.77-7.648C-1.212 5.346 2.714.437 7.5.437s8.71 4.909 6.364 10.53c-1.107 2.652-2.58 5.485-3.77 7.648a119.928 119.928 0 01-2.07 3.607l-.032.052-.011.018L7.5 22zm0 0l.48.292a.563.563 0 01-.96 0L7.5 22z" fill="#fff"/></g><defs><clipPath id="clip0_1_89"><path fill="#fff" d="M0 0h15v22H0z"/></clipPath></defs></svg>