<svg width="157" height="55" fill="none" xmlns="http://www.w3.org/2000/svg"><path fill-rule="evenodd" clip-rule="evenodd" d="M154.119 54.936l-151.12-.051.001-3 151.12.051-.001 3z" fill="#fff"/><path fill-rule="evenodd" clip-rule="evenodd" d="M153.5 54.937V7.383h3v47.554h-3z" fill="#fff"/><path fill-rule="evenodd" clip-rule="evenodd" d="M154.12 10.38H93.786v-3h60.334v3zm-90.636 0H3v-3h60.484v3z" fill="#fff"/><path d="M30.172 35.015a2.57 2.57 0 01-.468 1.51 3.242 3.242 0 01-1.264 1.032c-.52.243-1.09.365-1.714.365h-5.8v-11.28h5.921c.577 0 1.074.144 1.49.43.426.275.75.635.969 1.08.23.434.346.89.346 1.366 0 .561-.156 1.08-.467 1.557a2.812 2.812 0 01-1.299 1.064c.704.191 1.258.546 1.662 1.065a2.81 2.81 0 01.624 1.81zm-1.212-.19a2.06 2.06 0 00-.277-1.05 2.184 2.184 0 00-.762-.794 1.935 1.935 0 00-1.074-.302h-4.71v4.274h4.589c.416 0 .79-.1 1.125-.302.335-.201.6-.46.797-.778.208-.329.312-.678.312-1.049zm-6.823-7.213v4.162h4.225c.404 0 .762-.095 1.074-.286.311-.201.56-.46.744-.778a1.99 1.99 0 00.277-1.017c0-.381-.086-.726-.26-1.033a2.05 2.05 0 00-.71-.762c-.3-.19-.64-.286-1.02-.286h-4.33zm14.222-.97h1.022l5.108 11.28h-1.28l-1.594-3.527H34.09l-1.575 3.527h-1.3l5.143-11.28zm2.979 6.88l-2.476-5.577-2.511 5.577h4.987zm6.472-4.83v9.23h-1.212v-11.28h1.004l8.07 9.405V26.66h1.211v11.263h-1.125l-7.948-9.23zm12.579-2.05l4.017 6.07 4.052-6.07h1.316l-4.762 7.086v4.194H61.8v-4.226l-4.744-7.053h1.333zm13.995 0h1.022l5.108 11.28h-1.281l-1.593-3.527h-5.524l-1.576 3.527h-1.298l5.142-11.28zm2.979 6.88l-2.476-5.577-2.511 5.577h4.987zm12.277-4.766a2.89 2.89 0 00-.606-.477 3.968 3.968 0 00-.78-.381c-.288-.106-.6-.19-.935-.255a5.388 5.388 0 00-1.039-.095c-1.073 0-1.864.19-2.372.572-.496.37-.744.88-.744 1.525 0 .445.115.794.346 1.049.242.254.618.46 1.125.62.508.158 1.155.322 1.94.492.877.17 1.633.37 2.268.604.635.233 1.126.55 1.472.953.346.392.52.926.52 1.604 0 .52-.11.97-.33 1.35a2.78 2.78 0 01-.917.954c-.393.254-.86.445-1.403.572a8.51 8.51 0 01-1.783.174 9.444 9.444 0 01-1.836-.174 8.443 8.443 0 01-1.645-.54 6.868 6.868 0 01-1.454-.922l.606-.905c.22.211.479.413.779.603.312.18.652.344 1.022.493.38.148.784.265 1.212.35.438.074.888.11 1.35.11.981 0 1.743-.164 2.286-.492.554-.328.831-.816.831-1.462 0-.466-.138-.836-.416-1.112-.277-.286-.692-.519-1.246-.699a20.125 20.125 0 00-2.044-.524c-.854-.18-1.575-.381-2.164-.604-.589-.222-1.033-.513-1.333-.873-.289-.371-.433-.858-.433-1.462 0-.699.185-1.287.554-1.763.38-.488.9-.853 1.558-1.096.658-.255 1.415-.382 2.269-.382a6.73 6.73 0 011.506.16 5.34 5.34 0 011.299.428c.404.19.779.429 1.125.715l-.588.89zm12.388-1.128h-4.381v10.294h-1.212V27.628h-4.381v-.985h9.974v.985zM106.745 38c-.866 0-1.651-.158-2.355-.476a5.663 5.663 0 01-1.818-1.287 6.13 6.13 0 01-1.178-1.843 5.613 5.613 0 01-.415-2.113c0-.751.144-1.466.433-2.144a5.752 5.752 0 011.212-1.827 5.858 5.858 0 011.853-1.271 5.491 5.491 0 012.285-.477c.866 0 1.651.164 2.355.493a5.55 5.55 0 011.801 1.318c.508.551.9 1.165 1.177 1.843a5.526 5.526 0 01-.017 4.242 6.015 6.015 0 01-1.212 1.827 5.772 5.772 0 01-1.835 1.255 5.654 5.654 0 01-2.286.46zm-4.554-5.719a4.848 4.848 0 001.264 3.288c.404.435.883.785 1.437 1.05a4.472 4.472 0 001.853.38c.704 0 1.333-.132 1.887-.397a4.53 4.53 0 001.437-1.08 4.901 4.901 0 001.23-3.24c0-.615-.11-1.203-.329-1.764a4.7 4.7 0 00-.952-1.51 4.4 4.4 0 00-1.438-1.048 4.347 4.347 0 00-1.835-.381 4.39 4.39 0 00-1.887.397 4.492 4.492 0 00-1.438 1.08 5.03 5.03 0 00-.917 1.51 4.902 4.902 0 00-.312 1.715zm12.952 5.64v-11.28h5.194a3.45 3.45 0 012.598 1.129c.334.338.588.72.761 1.143.185.413.277.837.277 1.271 0 .54-.115 1.049-.346 1.526a3.253 3.253 0 01-.952 1.207 3.185 3.185 0 01-1.437.651l3.013 4.353h-1.368l-2.892-4.162h-3.636v4.162h-1.212zm1.212-5.147h4.017c.485 0 .906-.122 1.264-.365.358-.244.635-.562.831-.954.196-.402.294-.826.294-1.27a2.38 2.38 0 00-.346-1.256 2.524 2.524 0 00-.9-.937 2.217 2.217 0 00-1.247-.365h-3.913v5.147zm18.706 4.162v.985h-8.26v-11.28h8.104v.986h-6.892v4.067h6.009v.937h-6.009v4.305h7.048z" fill="#fff"/><path d="M89.105.192h-18.94v17.375h18.94V.192z"/><path fill-rule="evenodd" clip-rule="evenodd" d="M.5 54.887V7.379h3v47.508h-3z" fill="#fff"/></svg>