<svg width="181" height="71" fill="none" xmlns="http://www.w3.org/2000/svg"><path d="M.688 11.45h72.046v1.368H1.372v56.241h177.974V12.818h-71.365v-1.369h72.734v58.982H0V11.449h.688z" fill="#fff"/><path d="M33.234 45.607c0 .75-.191 1.418-.574 2.005a3.973 3.973 0 01-1.537 1.378c-.642.334-1.346.5-2.112.5h-7.11V34.424h7.256c.707 0 1.32.188 1.836.56.516.377.911.857 1.187 1.444s.415 1.2.415 1.836a3.96 3.96 0 01-.574 2.08 3.527 3.527 0 01-1.592 1.42c.862.253 1.544.73 2.046 1.42.503.694.753 1.499.753 2.42l.006.003zm-1.485-.253c0-.509-.114-.98-.34-1.41a2.895 2.895 0 00-.925-1.052 2.275 2.275 0 00-1.327-.402h-5.77v5.71h5.624c.51 0 .97-.133 1.379-.402.408-.27.74-.62.986-1.051.246-.432.37-.896.37-1.392h.003zm-8.362-9.633v5.56h5.177c.496 0 .934-.13 1.317-.393a2.82 2.82 0 00.91-1.028c.228-.425.341-.876.341-1.36 0-.508-.107-.972-.317-1.387a2.683 2.683 0 00-.87-1.01 2.156 2.156 0 00-1.252-.382h-5.306zm16.996-1.297h1.252l6.26 15.066h-1.57l-1.88-4.71h-6.89l-1.881 4.71H34.08l6.302-15.066zm3.594 9.188L41 36.166l-2.978 7.447h5.955zm7.565-6.451V49.49h-1.485V34.424h1.23l9.888 12.562V34.443h1.486V49.49h-1.379l-9.74-12.329zm14.982-2.737l4.92 8.105 4.966-8.105h1.612l-5.835 9.464v5.602H70.7v-5.647l-5.812-9.42h1.635zm16.717 0h1.252l6.26 15.066h-1.57l-1.881-4.71h-6.89l-1.88 4.71h-1.593l6.302-15.066zm3.594 9.188l-2.977-7.446-2.978 7.447h5.955zm14.675-6.334a3.907 3.907 0 00-.743-.649 5.075 5.075 0 00-.953-.5 7.027 7.027 0 00-1.136-.34 6.252 6.252 0 00-1.284-.126c-1.317 0-2.28.25-2.896.752-.617.5-.925 1.18-.925 2.044 0 .593.146 1.057.435 1.398.289.34.746.616 1.369.827.622.21 1.414.431 2.377.658 1.074.224 2.001.493 2.78.805.778.31 1.378.733 1.803 1.261.425.526.636 1.246.636 2.15 0 .691-.133 1.291-.402 1.8a3.53 3.53 0 01-1.126 1.269c-.48.34-1.054.59-1.719.752a9.226 9.226 0 01-2.186.244 10.07 10.07 0 01-2.238-.244 8.96 8.96 0 01-2.027-.72 8.208 8.208 0 01-1.784-1.22l.743-1.209c.269.282.59.548.966.795.376.246.792.47 1.252.668.46.198.954.35 1.486.457a8.32 8.32 0 001.644.159c1.204 0 2.14-.22 2.812-.658.672-.435 1.009-1.087 1.009-1.95 0-.62-.169-1.119-.509-1.492-.341-.376-.85-.68-1.528-.924a24.06 24.06 0 00-2.504-.697c-1.047-.24-1.93-.51-2.653-.808-.72-.298-1.262-.69-1.622-1.174-.36-.487-.541-1.135-.541-1.943 0-.93.23-1.719.69-2.361.461-.64 1.093-1.129 1.901-1.46.808-.33 1.732-.5 2.78-.5a8.17 8.17 0 011.855.202 6.656 6.656 0 011.593.584c.486.256.943.574 1.368.953l-.72 1.187-.003.01zm14.727-1.541h-5.349l-.022 13.753h-1.463l.023-13.753h-5.391l.023-1.313h12.198l-.019 1.313zm7.806 13.879c-1.061 0-2.024-.21-2.887-.636a6.949 6.949 0 01-2.228-1.728 8.14 8.14 0 01-1.443-2.462 7.961 7.961 0 01-.51-2.812c0-1.006.179-1.962.532-2.874a7.866 7.866 0 011.496-2.439 7.236 7.236 0 012.26-1.696 6.337 6.337 0 012.803-.626c1.06 0 2.023.22 2.886.658a6.991 6.991 0 012.219 1.761 8.423 8.423 0 011.433 2.462c.341.905.51 1.833.51 2.78a7.972 7.972 0 01-2.018 5.313 6.997 6.997 0 01-2.248 1.686 6.459 6.459 0 01-2.802.616l-.003-.003zm-5.582-7.638c0 .82.133 1.609.402 2.364.269.756.652 1.43 1.145 2.018a5.633 5.633 0 001.771 1.4 4.93 4.93 0 002.261.52c.862 0 1.638-.182 2.322-.542a5.568 5.568 0 001.761-1.443 6.49 6.49 0 001.113-2.027 7.13 7.13 0 00.382-2.293c0-.821-.133-1.606-.402-2.355a6.467 6.467 0 00-1.158-2.014 5.584 5.584 0 00-1.771-1.401c-.678-.341-1.43-.51-2.247-.51-.85 0-1.616.179-2.303.532a5.41 5.41 0 00-1.761 1.434 6.73 6.73 0 00-1.126 2.027 6.878 6.878 0 00-.392 2.293l.003-.003zm15.447 7.512V34.424h6.366a3.93 3.93 0 011.784.402 4.58 4.58 0 011.411 1.093c.402.46.714.97.934 1.528.221.558.328 1.128.328 1.709 0 .72-.14 1.401-.415 2.037a4.46 4.46 0 01-1.168 1.612 3.826 3.826 0 01-1.771.87l3.691 5.815h-1.677l-3.545-5.56h-4.456v5.56h-1.486.004zm1.485-6.877h4.924c.593 0 1.109-.162 1.55-.486a3.204 3.204 0 001.018-1.284 4.05 4.05 0 00.36-1.687c0-.61-.139-1.17-.415-1.687a3.49 3.49 0 00-1.102-1.252 2.65 2.65 0 00-1.538-.476h-4.797v6.876-.003zm22.494 5.56v1.317h-10.1l-.023-15.066h9.932v1.313h-8.466l.02 5.433h7.362v1.252l-7.382-.02.02 5.77h8.637z" fill="#fff"/><path fill-rule="evenodd" clip-rule="evenodd" d="M92.302 6.922c-.097.15-.097.185-.133.38-.181.937.224 1.965.435 3.042.039.198.049.201-.065.344-.256.032-.292-.185-.496-.185-.162.47.1 1.615-.195 2.339-.061.149-.34.606-.266.755.117.124.668-.295.75-.343.8-.487 1.459-.286 2.056-.756.58-.46.029-.428-.393-.584.04-.152.286-.224.425-.288l1.518-.672c.636-.282 1.395-.477.626-.885-.152-.081-.305-.156-.47-.253-.295-.169-.13-.357-.013-.403.51-.194 2.07.694 2.964-.278.253-.276.081-.5-.123-.743l-.08-.094c-.072-.085-.056-.055-.076-.153.28-.168.247-.097.665-.078.827.036 1.583.214 2.274-.626.068-.084.185-.207.169-.363-.016-.149-.166-.191-.302-.25-.542-.24-1.103-.291-.441-.742.626-.428 1.541.103 2.429-.964.081-.097.214-.282.263-.415.175-.486-.383-.503.292-.918.691-.425 1.181-.545.782-.963-.305-.321.113-.344.512-.632 1.19-.866.354-1.661-.853-1.353-.175.045-.392.136-.571.13-.1-.214-.143-.448-.428-.49-.357-.055-.931.383-1.278.59-.169.1-.441.308-.636.334-.155-.295-.094-.282-.009-.603.042-.165.129-.506.022-.658-.236-.328-1.563-.117-2.06.856-.129.256-.327.752-.697.885-.343.124-.505-.463-.69-.86-.211-.456-.309-.739-.915-.44-.308.152-.607.506-.795.785-.515.755-.632 1.592-.658 2.517-.007.22-.081.551-.328.363-.074-.055-.22-.425-.269-.539-.217-.505-.305-.716-.82-.295-1.327 1.08-.727 2.345-.523 3.594.026.169.078.633-.032.723-.286.23-1.044-.502-1.252-.69-.104-.095-.14-.127-.299-.13l-.016.01zm.458 6.341l.133.033c.564.006.924-.1 1.618.155.117.043.36.189.431.202-.006-.357-.635-.708-.869-.717-.09-.003-.551.11-.668.14-.107.025-.59.113-.649.184l.004.003zm3.901 5.907c.072.33.364.934.614 1.226.045.055.084.1.145.159.12.11.094.113.215.14-.166-.51-.292-.656-.322-1.272-.01-.179.017-.364 0-.529l-.655.279.004-.003zm-13.567 1.829c.081-.052.28-.26.38-.344.655-.558 1.245-.671 1.4-.782-.032-.068-.444-.457-.495-.483-.124-.058-.234.1-.302.16-.305.272-1.096 1.118-.983 1.449zm10.233-4.067c.065.02.312.032.4.045a9.2 9.2 0 01.385.062c.237.045.616.097.782-.072.217-.217.337-.62.464-.92l.103-.328c-.246-.091-1.232-.26-1.54-.026-.107.08-.636 1.067-.594 1.239zm2.686-1.457c.078.056.61.205.73.237.733.204.746-.104 1.18-.684l.428-.58c-.032-.027.02-.004-.068-.043l-.68-.194c-.753-.198-.928.103-1.23.625-.094.163-.331.503-.363.643l.003-.004zm-5.994 3.559c0-.48-.065-1.317-.396-1.567-.266-.201-1.232-.36-1.683-.337l.084.905c.12.833.344.567 1.194.814.133.038.717.188.8.184zm-2.579-2.326c.01-.198-.256-1.294-.463-1.495-.189-.179-.438-.198-.734-.237-.19-.026-.762-.039-.947-.01l.179.775c.065.24.097.555.237.74.155.204.45.22.749.237.314.016.662-.004.983-.007l-.004-.003zm8.29 2.806c.023.22.695 1.618.704 1.82-.188-.063-.687-.809-.807-1-.11-.172-.227-.376-.354-.551-.103-.143-.502-.059-.768-.03.01.176.558 1.029.658 1.197.279.458.431.714.837 1.048.347.285.746.473 1.23.632.362.12 1.2.296 1.618.266-.017-.103-.108-.149-.176-.204l-.632-.5a4.69 4.69 0 01-1.272-1.744c-.152-.37-.259-.75-.411-1.12l-.626.189v-.003zm-14.374 3.622c.08-.058.337-1.011.421-1.226.406-1.044.944-1.702 1.794-2.406l.457-.406c-.045-.1-.37-.486-.46-.538-.169.081-1.424 1.372-1.61 1.489-.006-.124.247-.587.322-.704.143-.22.253-.373.422-.607.496-.69.49-.567.279-1.015-.026-.055-.124-.292-.195-.324-.12.068-.762.914-.902 1.1-.765 1.008-1.07 1.566-.937 3.038.016.179.276 1.541.409 1.6zm10.379-4.715l-.033-.25c.185.23.432 1.336 1.641 1.433.688.055 1.956-.25 2.592-.476.843-.302 2.867-1.282 3.607-1.749.126-.08.347-.272.489-.292.198.386.763 1.904.889 2.407.334 1.33-.447 2.656-1.028 3.788-.068.13-.114.26-.188.37-.191.03-1.706-.279-1.972-.347-.63-.156-1.174-.36-1.664-.668-.564-.357-.733-.684-1.087-1.255-.295-.474-.548-1.012-.853-1.48-.107-.015-.574.004-.687.075.068.237.334.678.454.886.181.311.314.538.519.837.373.554.752 1.018 1.307 1.384 1.067.704 2.423.779 3.662 1.035.136.03.434.1.57.098.542-1.097 1.554-2.732 1.593-4.24.042-1.693-.915-2.838-.999-3.376-.013-.088.127-.431.153-.552.048-.214.045-.457.042-.694-.007-.788-.445-1.42-1.041-1.88-.63-.484-1.21-.77-2.232-.692-.717.056-1.547.539-2.085.837-.072.04-.163.078-.224.127-.127.1-.042.142-.133.243-.046.052-.117.1-.182.169-.162.165-.7.973-.688 1.16.185.069.63.053.86.091.795.133.788-.233 1.18-.752.101-.136.348-.438.403-.593-.302-.017-.587-.088-.886-.13-.084-.013-.207-.02-.278-.068.252-.393 1.258.256 1.702-.286.098-.12.211-.34.432-.191-.065.162-.292.292-.357.45.165.101.746.199.999.27.181.052.33.081.5-.013.194-.104.181-.256.382-.058-.032.113-.143.159-.191.275.103.091.434.234.57.308.234.124.374.175.442.484-.14-.023-.237-.117-.347-.172-.834-.428-1.022-.52-1.586.347-.088.133-.328.528-.373.662.227.142.538.262.81.444.198.13.578.395.682.6-.108-.023-.552-.396-.682-.477-.181-.113-.574-.34-.869-.298-.347.048-.483.879-.522 1.2-.023.188-.013.395-.052.56-.126-.067-.081-.388-.078-.515.004-.143.033-.36.062-.51.032-.151.078-.31.126-.447.043-.12.146-.334.163-.447-.12-.085-.526-.175-.707-.224-.75-.201-.83-.136-1.103.6-.081.214-.244.519-.24.743.68.243 1.394.554 1.76 1.216-.11-.013-.268-.191-.336-.25a4.555 4.555 0 00-.344-.26c-1.006-.674-1.47-.648-1.518.64l.026.506c-.013.078.01.032-.04.084-.122-.233-.087-.632-.067-.918.02-.289.11-.535.142-.817-.25-.117-.976-.218-1.323-.218-.288 0-.402.056-.49.296-.071.197-.107.412-.155.626-.072-.02-.049-.004-.091-.059-.143-.181.071-.603.087-.814l-.35-.003-.03-.204c.552-.224.39.19.695-.523.094-.223.347-.645.383-.823-.211-.11-.526-.023-.769-.01.065-.312.302-.24.59-.256.48-.03.646-.364.876-.717.09-.143.305-.396.34-.5-.113-.366-.94-.502-1.358-.58-.156-.03-.257-.04-.403-.075-.103-.026-.291-.107-.379-.094-.088.013-.532.308-.555.422.523.02 1.83.087 2.245.269-.075.123-.947.35-1.152.45a3.14 3.14 0 00-.908.672c-.266.289-.464.587-.577 1.015-.156.6.036.88.055 1.427l-.107-.152c-.474-.726-.814-1.08-1.511-1.596-.192-.14-.36-.288-.581-.444-.266.088.007.126-.415-.042a3.54 3.54 0 00-1.583-.25c-.03.12.185.662.227.795.065.21.143.635.324.74.078.041 1.596.392 1.739.395-.062-.594-.237-.957-.279-1.278.376.094.503.84.577 1.164.143.613.915.299.873.818-.14.016-.454-.163-.64-.185-.009.357.114.7.137 1.083.026.448.185.542.5.7l-.046.218c-.188.02-.207-.097-.409-.068-.068.396.052 1.223-.389 1.326.03-.538.299-1.346-.178-1.631-.311-.188-.814-.233-1.19-.279-.085-.01-.133-.02-.228-.026-.084-.006-.165-.036-.207.01-.075.149-.12.86-.169 1.093-.029.146-.09.337-.146.477l-.237.399c.004-.072.224-.763.273-1.025.058-.328.084-.918-.188-1.045-.344-.159-1.525.098-1.927.289-.084.039-.13.084-.24.097.195-.477 1.84-.62 2.313-.661.048-.292-.052-1.36-.292-1.541-.24-.178-1.576-.156-1.667-.065-.072.12-.091 1.096-.143 1.343-.071.344-.253.817-.49.996.033-.331.607-1.457.295-2.154-.159-.354-.642-.23-.973-.14-.269.075-.794.338-.963.367.052-.143.25-.21.38-.272.519-.247 1.157-.28 1.46-.419.002-.301-.199-1.132-.312-1.414-.257-.623-.7-.295-1.294-.263.165-.428.678-.198.93-.386-.035-.1-.116-.233-.123-.353.091-.042.136-.081.243-.11.02.045.166.363.198.399.094.11.338.087.516.09l1.08.043c.16-.027.036-.13-.088-.406-.051-.117-.168-.292-.181-.412.532.03.36.59.866.905.298.185.752.162 1.093.24.152.036.224.11.321.133.143-.104.253-.441.782-.75.227-.132.833-.408 1.116-.418-.377.497-1.23.853-1.204 1.281.195-.074 2.063-1.29 2.112-1.443-.166-.087-.578-.233-.792-.256-.425-.045-.515.159-.768.315-.218.133-.448.25-.695.386-1.025.57-.505.496-1.34-.357-.732-.75-1.922-1.31-3.038-.96-.675.21-1.197.678-1.66 1.083-.28.243-.458.409-.624.785-.214.486-.26 1.213.046 1.71.833 1.352.863 1.533 2.183 2.743.24.218.496.457.74.668l1.543 1.269c.243.188.568.444.808.596-.026.15-.172.234-.286.338-1.508 1.368-2.066 2.3-4.472 2.293-.6 0-1.152-.075-1.736-.107-.142-.007-.49.022-.558-.068-.026-.036-.382-1.843-.415-2.044-.113-.73-.149-1.56.052-2.254.25-.866.934-1.56 1.473-2.222.626-.772.613-.584.366-1.034l-.21-.325c-.166.133-.487.597-.64.779-1.456 1.716-2.075 2.903-1.573 5.293l.376 1.748c.03.13.078.487.153.587.38.013.694.04 1.054.072.898.08 2.378.11 3.198-.046 1.54-.292 1.966-.7 2.916-1.608.21-.205.944-1.01 1.184-1.074.094-.026.38-.032.5-.049.174-.023.333-.065.48-.107 1.4-.405 2.254-2.134 1.978-3.574l-.016-.006zM78.317 5.924c-.338.025-.71-.02-1.012.07-.23.072-.536.267-.562.546-.025.285.29.496.497.597.373.178.639.171.81.288.043.26-.265.458.007.6.182.094.74.198 1.015.295.14.052.192.091.195.25.01.4.045.386.295.59.308.25.746.513 1.3.403.406-.081 1.25-.205 1.392.191-.075.256-.584.438-.694.633-.162.285.438.55.658.622.84.273 1.762-.502 2.16-.305.043.244-.428.587-.029.86.244.165.678.256 1.032.181.263-.055.623-.25.862-.36.208-.097.785-.447.847-.016-.068.11-.246.263-.347.364l-.175.175c-.09.087-.107.146-.078.288.068.117 1.122.23 1.375.273.23.039.487.065.717.107.217.042.584.013.655.198-.198.126-.937.376.042.62.224.054.497.057.743.028.649-.078.788.059 1.307.205.11-.37.146-.334-.09-.61-.137-.159-.208-.33-.286-.568-.094-.292-.285-1.174-.428-1.3-.169.084-.15.269-.406.243-.159-.22-.152-1.31-.178-1.683-.042-.568-.1-1.113-.418-1.447-.247-.032-.302.224-.396.373-.088.14-.22.295-.354.425-.791.778-.525-.83-.759-1.966-.217-1.044-1.44-1.631-1.638-1.313-.152.243-.084.814-.23.953-.256.244-.389-.425-.454-.613a5.367 5.367 0 00-.23-.545c-.289-.61-.957-1.378-1.638-1.504-.655-.124-.552.136-.688.833-.039.195-.052.48-.207.574-.406.25-.837-.626-1.398-.892-.373-.175-.918-.237-1.3-.045-.478.24.223.746.174 1.1-.026.194-.233.07-.558-.03-1.757-.542-1.303-.087-1.534.321l.004-.01zm6.597 1.981c-.104-.029-.48-.295-.724-.412-.272-.13-.483-.236-.762-.343a11.683 11.683 0 00-1.683-.523c-.59-.126-1.327-.25-1.946-.26-.477-.009-1.693-.035-1.933.264.25-.01.506-.059.778-.069 1.651-.068 3.34.176 4.836.866.191.088.234.082.279.198-1.265-.048-3.062.318-3.905.844.052.032.12.016.191-.007.075-.023.12-.039.192-.062 1.158-.373 1.66-.505 2.98-.557.918-.036 1.074-.03 1.651.382.218.153 1.035.795 1.093.95a7.27 7.27 0 00-1.764.3c-.295.087-1.307.48-1.43.628.074.043.162 0 .243-.032.087-.036.14-.062.23-.097.15-.062.315-.13.474-.182.665-.23 1.482-.422 2.195-.444.422-.017.464.149.847.49.51.45.905.778 1.43 1.21.24.197 1.301 1.095 1.547 1.131-.026-.175-.259-.321-.386-.434L87.13 9.845c-.422-.373-1.437-1.197-1.729-1.564-.253-.317-.376-.658-.584-1.076a26.63 26.63 0 01-.525-1.11c-.09-.21-.431-1.112-.493-1.164-.01.013-.058-.02.003.198.26.902.406 1.187.795 2.043.09.198.285.548.321.736l-.003-.003zm8.38 3.51c.173-.081.504-.6.656-.808l.915-1.297c.097-.14.204-.296.311-.441.282-.39.652-.905.895-1.317.1-.169.162-.325.357-.396.353-.13.889-.14 1.271-.214.315-.058 1.1-.042 1.434-.007.227.023.441.052.668.069.146.01.493.146.597-.017-.221-.142-1.56-.243-1.927-.246-.366-.003-.684.036-1.031.065-.324.026-.655.123-.963.162.038-.204.755-1.165.94-1.408.406-.535.772-.707 1.463-.869.321-.075.639-.156.95-.208.808-.136 1.346-.19 2.18-.175.37.007.772.085 1.135.049-.24-.263-2.192-.208-2.442-.195-.399.02-1.294.172-1.71.273-.139.032-.424.126-.557.126.045-.09.055-.08.133-.155.042-.04.084-.082.142-.133.27-.25.672-.545.986-.75.451-.295.967-.577 1.489-.82 1.067-.493 2.287-.889 3.578-1.048-.532-.217-1.82.179-2.332.331-.662.195-1.385.519-1.979.834-.996.525-2.073 1.248-2.854 2.072-.1.107-.253.33-.37.37.013-.253.117-.613.159-.882.081-.51.376-2.537.22-2.819-.11.03-.087.224-.09.328-.033.914-.234 1.874-.393 2.75-.107.603-.113.921-.386 1.408-.227.405-1.154 1.764-1.414 2.153-.636.95-1.294 1.963-1.95 2.903-.035.052-.064.088-.09.14-.039.08-.026.09-.023.117.007.048.007.038.02.061l.013-.006z" fill="#fff"/></svg>