<svg width="50" height="50" fill="none" xmlns="http://www.w3.org/2000/svg"><g clip-path="url(#clip0_3300_11574)"><path fill-rule="evenodd" clip-rule="evenodd" d="M25 0C11.199 0 0 11.199 0 25s11.199 25 25 25 25-11.199 25-25S38.801 0 25 0zm0 1.042c13.237 0 23.958 10.72 23.958 23.958 0 13.239-10.72 23.958-23.958 23.958-13.238 0-23.958-10.72-23.958-23.958C1.042 11.761 11.762 1.042 25 1.042zm1.857 11.29a.52.52 0 00-.52.52v.533c-.15.052-.297.112-.44.18l-.374-.373a.52.52 0 00-.736 0l-1.105 1.104a.522.522 0 000 .737l.375.376a4.006 4.006 0 00-.18.438h-.535a.52.52 0 00-.521.52v1.563a.52.52 0 00.52.521h.534c.052.151.111.297.181.442l-.375.375a.52.52 0 000 .735l1.104 1.104a.52.52 0 00.738 0l.375-.374c.143.07.288.13.439.182v.53a.52.52 0 00.52.522h1.563a.52.52 0 00.52-.521v-.534a3.94 3.94 0 00.44-.18l.376.376a.52.52 0 00.737 0l1.105-1.104a.522.522 0 000-.737l-.376-.376c.069-.144.13-.29.182-.44h.531a.52.52 0 00.521-.52v-1.563a.52.52 0 00-.52-.521h-.534c-.05-.15-.11-.297-.178-.44l.374-.375a.521.521 0 000-.735l-1.104-1.104a.519.519 0 00-.738 0l-.375.375a4.12 4.12 0 00-.44-.183v-.533a.521.521 0 00-.521-.52h-1.563zm.521 1.04h.521v.353a.52.52 0 00.405.508c.328.075.643.205.927.386a.52.52 0 00.646-.074l.248-.248.368.368-.246.245a.521.521 0 00-.073.644c.177.286.306.601.38.93a.52.52 0 00.509.404h.352v.521h-.352a.521.521 0 00-.507.407 2.99 2.99 0 01-.385.927.521.521 0 00.074.644l.248.248-.368.368-.246-.246a.521.521 0 00-.646-.073 2.996 2.996 0 01-.927.38.52.52 0 00-.406.509v.352h-.52v-.352a.52.52 0 00-.407-.506 2.997 2.997 0 01-.925-.386.522.522 0 00-.646.073l-.248.25-.367-.369.245-.247a.52.52 0 00.073-.644 2.992 2.992 0 01-.38-.927.521.521 0 00-.508-.408h-.354v-.52h.352a.52.52 0 00.508-.406 2.99 2.99 0 01.383-.925.521.521 0 00-.072-.646l-.247-.247.367-.368.247.246a.52.52 0 00.643.073 3.02 3.02 0 01.927-.38.521.521 0 00.407-.509v-.354zm-9.75 1.399c-.145 0 .166-.031-.43.052a1.806 1.806 0 00-1.327 1.764v.747c-2.475.697-4.413 2.76-4.413 5.393 0 3.246 2.892 5.707 6.195 5.707 1.607 0 2.631 1.052 2.631 2.141 0 1.09-1.022 2.137-2.63 2.137-1.61 0-2.629-1.047-2.629-2.137.005-.554-.217-1.037-.56-1.345a1.82 1.82 0 00-1.222-.454 1.82 1.82 0 00-1.223.454c-.345.31-.567.796-.56 1.352.003 2.694 1.98 4.677 4.41 5.39v.76c-.006.559.215 1.045.56 1.355.346.312.789.455 1.223.455.436 0 .877-.143 1.223-.455.346-.31.57-.796.563-1.354v-.763c2.474-.7 4.411-2.76 4.411-5.393 0-3.246-2.893-5.707-6.197-5.707-1.606 0-2.628-1.052-2.628-2.14 0-1.074.997-2.1 2.57-2.129h.124c1.57.031 2.565 1.05 2.565 2.122-.005.554.216 1.036.56 1.345.345.311.787.454 1.223.454.434 0 .877-.142 1.221-.452.346-.31.568-.796.561-1.352-.002-2.696-1.98-4.68-4.412-5.392v-.745a1.792 1.792 0 00-1.81-1.81zm10.01.664a1.72 1.72 0 00-1.712 1.714c0 .94.772 1.714 1.713 1.714.94 0 1.715-.773 1.715-1.714 0-.94-.775-1.714-1.715-1.714zm-9.995.38h.006c.42 0 .753.324.747.745v1.115a.521.521 0 00.405.51c2.24.504 4.006 2.212 4.006 4.535l.001.01c.005.295-.085.448-.215.565a.801.801 0 01-.526.185.8.8 0 01-.527-.185c-.13-.116-.22-.27-.214-.566v-.01c0-1.709-1.557-3.123-3.588-3.164h-.162c-2.034.038-3.594 1.459-3.594 3.17 0 1.733 1.593 3.182 3.671 3.182 2.792 0 5.156 2.042 5.156 4.666 0 2.251-1.735 4.054-4 4.531a.52.52 0 00-.413.508v1.135c.004.296-.087.45-.216.566a.802.802 0 01-.527.187.796.796 0 01-.525-.188c-.129-.115-.219-.27-.215-.565v-1.13a.52.52 0 00-.407-.508c-2.24-.502-4.006-2.212-4.006-4.534v-.012c-.004-.296.086-.45.216-.566a.802.802 0 01.527-.188c.202 0 .396.071.525.188.129.116.22.27.215.566v.012c0 1.732 1.593 3.18 3.67 3.18 2.078 0 3.673-1.448 3.673-3.18 0-1.733-1.594-3.182-3.673-3.182-2.79 0-5.153-2.042-5.153-4.666 0-2.251 1.735-4.052 4-4.528a.522.522 0 00.413-.51v-1.122a.733.733 0 01.73-.752zm9.995.662a.673.673 0 01.623.928.67.67 0 11-.622-.928zm2.902 5.49a.52.52 0 00-.521.52v.932c-.323.1-.636.227-.936.383l-.655-.653a.52.52 0 00-.736 0l-1.608 1.604a.522.522 0 000 .738l.657.656c-.157.3-.285.611-.386.934h-.93a.52.52 0 00-.52.521v2.273a.52.52 0 00.52.52h.932c.1.324.228.634.385.934l-.658.657a.52.52 0 000 .737l1.608 1.605a.52.52 0 00.736 0l.656-.655c.301.156.612.286.935.386v.928a.52.52 0 00.52.52h2.273a.52.52 0 00.521-.52v-.93a5.6 5.6 0 00.934-.384l.656.656a.52.52 0 00.735 0l1.608-1.606a.52.52 0 000-.736l-.656-.657c.157-.299.287-.612.388-.934h.927a.52.52 0 00.52-.521v-2.273a.52.52 0 00-.52-.52h-.93a5.61 5.61 0 00-.385-.936l.657-.656a.52.52 0 000-.736l-1.609-1.605a.52.52 0 00-.736 0l-.655.655a5.587 5.587 0 00-.934-.387v-.93a.52.52 0 00-.52-.52H30.54zm.52 1.041h1.232v.75a.52.52 0 00.405.508c.503.114.984.312 1.422.587a.521.521 0 00.645-.073l.527-.527.87.869-.525.527a.52.52 0 00-.075.646c.273.437.472.916.586 1.42a.52.52 0 00.506.408h.751v1.231h-.749a.52.52 0 00-.506.404 4.58 4.58 0 01-.587 1.423.521.521 0 00.07.645l.53.53-.871.868-.525-.525a.52.52 0 00-.646-.073c-.438.273-.917.47-1.421.583a.52.52 0 00-.407.507v.75H31.06v-.748a.52.52 0 00-.404-.507 4.598 4.598 0 01-1.423-.588.52.52 0 00-.645.072l-.529.527-.87-.869.527-.527a.52.52 0 00.072-.646 4.588 4.588 0 01-.583-1.422.521.521 0 00-.508-.406h-.75v-1.231h.748a.52.52 0 00.508-.405c.115-.504.314-.985.589-1.422a.52.52 0 00-.073-.645l-.53-.53.87-.868.527.525a.52.52 0 00.644.073 4.6 4.6 0 011.424-.583.52.52 0 00.406-.507v-.75zm.615 3.125a2.615 2.615 0 00-2.602 2.605 2.615 2.615 0 002.602 2.604 2.615 2.615 0 002.604-2.604 2.616 2.616 0 00-2.604-2.605zm0 1.042c.86 0 1.562.702 1.562 1.563 0 .86-.702 1.562-1.562 1.562a1.564 1.564 0 01-1.56-1.563c0-.86.7-1.562 1.56-1.562z" fill="#397345"/></g><defs><clipPath id="clip0_3300_11574"><path fill="#fff" d="M0 0h50v50H0z"/></clipPath></defs></svg>