<svg width="50" height="50" fill="none" xmlns="http://www.w3.org/2000/svg"><path d="M24.962 1.156l-1.128 1.266c-4.78 5.369-11.418 7.903-19.337 8.869l-1.372.165v1.385c0 8.062 1.706 15.884 5.238 22.297 3.53 6.412 8.95 11.415 16.19 13.575l.466.14.462-.16c13.994-4.52 21.394-19.252 21.394-35.852v-1.244l-1.216-.287c-7.703-1.775-14.806-3.932-19.525-8.916l-1.172-1.24v.002zm.076 4.157c5.059 4.725 11.703 7 18.584 8.643-.328 14.941-6.866 27.404-18.634 31.507-6.129-1.985-10.757-6.157-13.885-11.835-3.05-5.53-4.562-12.443-4.725-19.63 7.235-1.098 13.694-3.688 18.656-8.685h.004zm8.306 13.378l-11.397 9.978-5.219-5.213-2.21 2.21 7.282 7.281 13.606-11.903-2.062-2.353z" fill="#397345"/></svg>