<svg width="38" height="37" fill="none" xmlns="http://www.w3.org/2000/svg"><rect x=".319" width="37.363" height="36.282" rx="18.141" fill="#fff"/><path d="M19.918 24.49c-7.021 0-11.026-4.766-11.193-12.698h3.517c.116 5.822 2.708 8.288 4.762 8.796v-8.796h3.312v5.02c2.028-.215 4.158-2.503 4.877-5.02h3.312a9.638 9.638 0 01-1.586 3.63 9.744 9.744 0 01-2.92 2.7 10.123 10.123 0 013.328 2.624 10.01 10.01 0 011.948 3.745H25.63a6.272 6.272 0 00-1.966-3.064 6.37 6.37 0 00-3.348-1.474v4.538h-.398z" fill="#0B0B0B"/></svg>