<svg width="24" height="22" fill="none" xmlns="http://www.w3.org/2000/svg"><path fill-rule="evenodd" clip-rule="evenodd" d="M3.75 4.813v13.062c0 .912.395 1.786 1.098 2.431A3.933 3.933 0 007.5 21.312h9c.994 0 1.948-.362 2.652-1.006.703-.645 1.098-1.52 1.098-2.431V4.812h2.25c.414 0 .75-.308.75-.687 0-.38-.336-.688-.75-.688h-21c-.414 0-.75.308-.75.688 0 .38.336.688.75.688h2.25zm15 0v13.062c0 .547-.237 1.072-.66 1.458a2.355 2.355 0 01-1.59.605h-9c-.597 0-1.17-.218-1.59-.605a1.977 1.977 0 01-.66-1.458V4.812h13.5zm-10.5-2.75h7.5c.414 0 .75-.309.75-.688 0-.38-.336-.688-.75-.688h-7.5c-.414 0-.75.308-.75.688 0 .38.336.688.75.688z" fill="#8a8a8a"/><path fill-rule="evenodd" clip-rule="evenodd" d="M9 8.25v8.25c0 .38.336.688.75.688s.75-.308.75-.688V8.25c0-.38-.336-.688-.75-.688S9 7.87 9 8.25zm4.5 0v8.25c0 .38.336.688.75.688s.75-.308.75-.688V8.25c0-.38-.336-.688-.75-.688s-.75.308-.75.688z" fill="#8a8a8a"/></svg>