<svg width="201" height="62" viewBox="0 0 201 62" fill="black" xmlns="http://www.w3.org/2000/svg">
    <path d="M1.46607 11.3662H81.2012V12.5325H2.22347V60.4567H199.19V12.5325H120.209V11.3662H200.705V61.6258H0.705078V11.3662H1.46607Z" fill="white"/>
    <path fill-rule="evenodd" clip-rule="evenodd" d="M101.638 5.89879C101.546 6.02593 101.546 6.05633 101.513 6.22216C101.342 7.0209 101.723 7.89702 101.921 8.8146C101.958 8.98319 101.967 8.98595 101.86 9.10756C101.619 9.1352 101.586 8.95002 101.394 8.95002C101.241 9.35077 101.488 10.3264 101.211 10.9427C101.153 11.0699 100.89 11.4595 100.96 11.5867C101.07 11.6917 101.589 11.3352 101.665 11.2937C102.419 10.8792 103.038 11.0505 103.6 10.6498C104.146 10.2573 103.627 10.2849 103.23 10.1523C103.267 10.0224 103.499 9.96157 103.63 9.9063L105.058 9.33419C105.656 9.09374 106.37 8.92791 105.647 8.57968C105.503 8.51058 105.36 8.44701 105.204 8.3641C104.927 8.22038 105.082 8.06008 105.192 8.02139C105.671 7.85556 107.139 8.61284 107.981 7.7837C108.219 7.54878 108.057 7.35808 107.865 7.15079C107.832 7.11486 107.819 7.10381 107.789 7.07064C107.722 6.99879 107.737 7.02366 107.719 6.94075C107.981 6.79703 107.951 6.85783 108.344 6.87441C109.122 6.90482 109.833 7.05683 110.483 6.341C110.547 6.26914 110.657 6.16412 110.642 6.03146C110.626 5.90432 110.486 5.86839 110.358 5.81864C109.848 5.61412 109.32 5.5699 109.943 5.18574C110.532 4.82092 111.392 5.27418 112.228 4.36489C112.304 4.28197 112.43 4.12444 112.475 4.01112C112.64 3.59655 112.115 3.58273 112.75 3.22897C113.4 2.86691 113.861 2.76465 113.485 2.40812C113.198 2.13451 113.592 2.11516 113.967 1.86918C115.087 1.13125 114.3 0.454119 113.165 0.716679C113 0.755372 112.796 0.832759 112.628 0.827231C112.533 0.644821 112.494 0.445827 112.225 0.409898C111.89 0.362913 111.349 0.736026 111.023 0.912908C110.864 0.998586 110.608 1.17547 110.425 1.19758C110.279 0.946075 110.336 0.95713 110.416 0.683514C110.455 0.54256 110.538 0.252362 110.437 0.122464C110.214 -0.156679 108.967 0.0229672 108.5 0.852106C108.378 1.07045 108.192 1.49331 107.844 1.60662C107.52 1.71165 107.368 1.2114 107.194 0.874215C106.995 0.48452 106.904 0.24407 106.333 0.498339C106.044 0.628238 105.763 0.929492 105.586 1.16718C105.101 1.81114 104.991 2.5242 104.966 3.31188C104.96 3.49982 104.89 3.78173 104.658 3.62143C104.588 3.57444 104.451 3.25937 104.405 3.16264C104.201 2.73149 104.118 2.55184 103.633 2.91113C102.385 3.83148 102.95 4.90936 103.142 5.97342C103.166 6.11713 103.215 6.51236 103.111 6.58974C102.843 6.78597 102.129 6.16135 101.934 6.00105C101.836 5.9209 101.802 5.89327 101.653 5.8905L101.638 5.89879ZM102.068 11.302L102.193 11.3296C102.724 11.3352 103.063 11.244 103.716 11.4623C103.825 11.4982 104.054 11.6226 104.121 11.6337C104.115 11.3297 103.523 11.0312 103.304 11.0229C103.218 11.0201 102.785 11.1168 102.675 11.1417C102.574 11.1638 102.12 11.2384 102.065 11.2992L102.068 11.302ZM105.738 16.3349C105.806 16.6168 106.08 17.1309 106.315 17.3796C106.358 17.4266 106.394 17.4653 106.452 17.515C106.565 17.609 106.541 17.6118 106.654 17.6339C106.498 17.2 106.379 17.0756 106.352 16.5505C106.343 16.3984 106.367 16.2409 106.352 16.1L105.735 16.3376L105.738 16.3349ZM92.9755 17.8937C93.0518 17.8494 93.2379 17.6726 93.3325 17.6007C93.9488 17.1253 94.5042 17.0286 94.6506 16.9346C94.6201 16.8766 94.2326 16.5449 94.1838 16.5228C94.0678 16.4731 93.9641 16.6085 93.9 16.6582C93.6132 16.8904 92.8687 17.6118 92.9755 17.8937ZM102.602 14.4279C102.663 14.4444 102.895 14.4555 102.977 14.4666C103.111 14.4831 103.221 14.4997 103.34 14.5191C103.563 14.5578 103.92 14.602 104.076 14.4583C104.28 14.2731 104.393 13.9304 104.512 13.6733L104.61 13.3942C104.378 13.3168 103.45 13.1731 103.16 13.3721C103.06 13.4412 102.562 14.2814 102.602 14.4279ZM105.128 13.1869C105.201 13.2339 105.702 13.361 105.815 13.3887C106.504 13.5628 106.516 13.3002 106.925 12.8055L107.328 12.3108C107.298 12.2887 107.346 12.308 107.264 12.2749L106.623 12.109C105.915 11.9404 105.751 12.1975 105.467 12.6425C105.378 12.7806 105.156 13.0708 105.125 13.1897L105.128 13.1869ZM99.4897 16.2188C99.4897 15.8098 99.4287 15.0967 99.1175 14.8839C98.8673 14.7125 97.958 14.5771 97.5339 14.5965L97.6133 15.3676C97.7262 16.0778 97.9367 15.8512 98.7361 16.0613C98.8612 16.0944 99.4104 16.2216 99.4897 16.2188ZM97.0641 14.2372C97.0732 14.0686 96.823 13.1344 96.6277 12.9631C96.4508 12.811 96.2158 12.7945 95.9382 12.7613C95.7582 12.7392 95.2212 12.7281 95.0473 12.753L95.2151 13.4136C95.2761 13.6181 95.3066 13.8862 95.4378 14.0437C95.5843 14.2178 95.8619 14.2316 96.1426 14.2455C96.4386 14.2593 96.765 14.2427 97.0671 14.2399L97.0641 14.2372ZM104.863 16.6278C104.884 16.8158 105.516 18.007 105.525 18.1783C105.348 18.1258 104.878 17.4901 104.765 17.3271C104.661 17.1806 104.552 17.0065 104.433 16.8572C104.335 16.7356 103.96 16.8075 103.709 16.8324C103.719 16.9816 104.234 17.7085 104.329 17.8522C104.591 18.2419 104.735 18.4602 105.116 18.7449C105.442 18.9881 105.818 19.1484 106.272 19.2839C106.614 19.3861 107.401 19.5354 107.795 19.5105C107.78 19.422 107.694 19.3833 107.63 19.3364L107.035 18.9107C106.523 18.51 106.108 18.007 105.839 17.4238C105.696 17.1087 105.595 16.7854 105.452 16.4703L104.863 16.6306V16.6278ZM91.3401 19.715C91.4164 19.6653 91.6574 18.8527 91.7368 18.6703C92.1182 17.7803 92.6247 17.2193 93.4241 16.6196L93.8543 16.2741C93.8115 16.1884 93.5064 15.8595 93.421 15.8153C93.2623 15.8844 92.0816 16.9844 91.9076 17.0839C91.9015 16.9788 92.1395 16.5836 92.2097 16.4841C92.344 16.2962 92.4477 16.1663 92.6063 15.9673C93.0732 15.3786 93.0671 15.4836 92.8688 15.1022C92.8443 15.0552 92.7528 14.8535 92.6857 14.8259C92.5728 14.8839 91.9687 15.6052 91.8375 15.7628C91.1174 16.6223 90.8306 17.0977 90.9557 18.3525C90.9709 18.5045 91.215 19.6653 91.3401 19.715ZM101.104 15.6964L101.073 15.4836C101.247 15.6799 101.479 16.6223 102.617 16.7052C103.264 16.7522 104.457 16.4924 105.055 16.299C105.848 16.0419 107.752 15.2073 108.448 14.8093C108.567 14.7402 108.774 14.5771 108.909 14.5605C109.095 14.8894 109.626 16.1829 109.745 16.6113C110.059 17.7444 109.324 18.8748 108.777 19.8394C108.713 19.9499 108.671 20.0605 108.6 20.1544C108.42 20.1793 106.995 19.9168 106.745 19.8587C106.153 19.7261 105.641 19.5519 105.18 19.2894C104.649 18.9854 104.491 18.7062 104.158 18.2198C103.88 17.8163 103.642 17.3575 103.355 16.9595C103.255 16.9457 102.815 16.9623 102.709 17.0231C102.773 17.2248 103.023 17.6007 103.136 17.7776C103.307 18.0429 103.432 18.2364 103.624 18.4906C103.975 18.9633 104.332 19.3585 104.854 19.6708C105.857 20.2705 107.133 20.3341 108.298 20.5524C108.426 20.5773 108.707 20.6381 108.835 20.6353C109.345 19.7012 110.297 18.3082 110.333 17.0231C110.373 15.5804 109.473 14.6047 109.394 14.146C109.381 14.0713 109.513 13.7784 109.537 13.6761C109.583 13.4937 109.58 13.2864 109.577 13.0847C109.571 12.4131 109.159 11.8741 108.597 11.4817C108.005 11.0699 107.459 10.8266 106.498 10.893C105.824 10.94 105.043 11.3518 104.536 11.606C104.469 11.6392 104.384 11.6724 104.326 11.7138C104.207 11.7995 104.286 11.8354 104.201 11.9211C104.158 11.9653 104.091 12.0068 104.03 12.0648C103.877 12.2058 103.371 12.894 103.383 13.0543C103.557 13.1123 103.975 13.0985 104.192 13.1316C104.939 13.245 104.933 12.9327 105.302 12.4904C105.397 12.3744 105.629 12.1173 105.68 11.9847C105.397 11.9709 105.128 11.91 104.847 11.8741C104.768 11.8631 104.652 11.8575 104.585 11.8161C104.823 11.4817 105.769 12.0344 106.187 11.5729C106.278 11.4706 106.385 11.2827 106.593 11.4098C106.532 11.548 106.318 11.6585 106.257 11.794C106.413 11.8796 106.959 11.9626 107.197 12.0234C107.368 12.0676 107.508 12.0925 107.667 12.0123C107.85 11.9239 107.838 11.794 108.027 11.9626C107.996 12.0593 107.893 12.098 107.847 12.1975C107.944 12.2749 108.256 12.3965 108.384 12.46C108.603 12.5651 108.735 12.6093 108.799 12.8718C108.668 12.8525 108.576 12.7724 108.472 12.7254C107.688 12.3605 107.511 12.2832 106.98 13.0211C106.898 13.1344 106.672 13.4716 106.629 13.5849C106.843 13.7065 107.136 13.8088 107.392 13.9635C107.578 14.0741 107.935 14.3007 108.033 14.4748C107.932 14.4555 107.514 14.1377 107.392 14.0686C107.221 13.9718 106.852 13.7784 106.574 13.8143C106.248 13.8558 106.12 14.5633 106.083 14.8369C106.062 14.9972 106.071 15.1741 106.034 15.315C105.915 15.257 105.958 14.9834 105.961 14.8756C105.964 14.754 105.992 14.5688 106.019 14.4417C106.05 14.3118 106.092 14.1764 106.138 14.0603C106.178 13.958 106.275 13.7756 106.291 13.6789C106.178 13.607 105.796 13.5296 105.626 13.4882C104.921 13.3168 104.844 13.3721 104.588 13.9995C104.512 14.1819 104.359 14.4417 104.362 14.6324C105.003 14.8397 105.674 15.105 106.019 15.6688C105.915 15.6578 105.766 15.5057 105.702 15.456C105.604 15.3814 105.473 15.2929 105.378 15.2349C104.433 14.66 103.996 14.6821 103.95 15.7794L103.975 16.2105C103.963 16.2768 103.984 16.2382 103.938 16.2824C103.822 16.0834 103.856 15.7434 103.874 15.5002C103.892 15.2542 103.978 15.0442 104.008 14.8037C103.773 14.7042 103.09 14.6186 102.764 14.6186C102.492 14.6186 102.385 14.6656 102.303 14.8701C102.236 15.0387 102.202 15.2211 102.156 15.4035C102.089 15.3869 102.111 15.4007 102.071 15.3537C101.937 15.199 102.138 14.8397 102.153 14.66L101.824 14.6573L101.796 14.4831C102.315 14.2924 102.163 14.6462 102.449 14.0382C102.538 13.8475 102.776 13.4882 102.809 13.3362C102.611 13.2422 102.315 13.3168 102.086 13.3279C102.147 13.0626 102.37 13.1234 102.642 13.1095C103.093 13.0847 103.249 12.8 103.465 12.4987C103.551 12.3771 103.752 12.1616 103.786 12.0731C103.679 11.7608 102.901 11.6447 102.507 11.5784C102.361 11.5535 102.266 11.5452 102.129 11.5148C102.031 11.4927 101.854 11.4236 101.772 11.4347C101.69 11.4457 101.272 11.6972 101.25 11.794C101.741 11.8106 102.971 11.8686 103.362 12.0234C103.291 12.1284 102.471 12.3219 102.278 12.4075C101.976 12.543 101.671 12.7364 101.424 12.9796C101.174 13.2256 100.988 13.4799 100.881 13.8447C100.735 14.356 100.915 14.5937 100.933 15.0608L100.832 14.9309C100.387 14.3118 100.066 14.0105 99.4104 13.5711C99.2304 13.4522 99.0717 13.3251 98.8642 13.1924C98.614 13.2671 98.8703 13.3002 98.4737 13.1565C97.9977 12.9824 97.5278 12.9161 96.9847 12.9437C96.9573 13.046 97.1586 13.5075 97.1983 13.6208C97.2593 13.8005 97.3326 14.1625 97.5034 14.251C97.5767 14.2869 99.0046 14.5854 99.1388 14.5882C99.0809 14.0824 98.9161 13.7728 98.8764 13.4992C99.2304 13.5794 99.3494 14.2151 99.4195 14.4914C99.5538 15.0138 100.28 14.7457 100.24 15.1879C100.109 15.2017 99.8131 15.0497 99.6392 15.0304C99.6301 15.3344 99.746 15.6274 99.7674 15.9535C99.7918 16.3349 99.9413 16.415 100.237 16.5505L100.195 16.7356C100.018 16.7522 99.9992 16.6527 99.8101 16.6776C99.746 17.0148 99.8589 17.7195 99.4439 17.808C99.4714 17.3492 99.7246 16.661 99.2761 16.4178C98.9832 16.2575 98.5103 16.2188 98.1564 16.1801C98.077 16.1718 98.0313 16.1635 97.9428 16.158C97.8635 16.1525 97.7872 16.1276 97.7475 16.1663C97.6773 16.2934 97.6346 16.8987 97.5889 17.0977C97.5614 17.2221 97.5034 17.3851 97.4515 17.504L97.2288 17.8439C97.2319 17.7831 97.4394 17.1944 97.4851 16.9706C97.54 16.6914 97.5644 16.1884 97.3081 16.0806C96.9847 15.9452 95.8741 16.1635 95.4958 16.3266C95.4164 16.3598 95.3737 16.3985 95.27 16.4095C95.4531 16.0032 97 15.8816 97.4455 15.8457C97.4912 15.5969 97.3966 14.6877 97.1708 14.5329C96.9451 14.3809 95.688 14.4002 95.6026 14.4776C95.5354 14.5799 95.5171 15.4118 95.4683 15.6218C95.4012 15.9148 95.2303 16.3183 95.0076 16.4703C95.0381 16.1884 95.5782 15.2294 95.2852 14.6352C95.1357 14.3339 94.6811 14.4389 94.3699 14.5163C94.1167 14.5799 93.6224 14.8037 93.4637 14.8286C93.5125 14.707 93.6987 14.649 93.8207 14.5965C94.3089 14.3864 94.91 14.3588 95.1937 14.2399C95.1968 13.9829 95.0076 13.2754 94.9008 13.0349C94.6598 12.5043 94.2418 12.7834 93.6834 12.811C93.839 12.4462 94.3211 12.6425 94.5591 12.4822C94.5255 12.3965 94.4492 12.2832 94.4431 12.1809C94.5286 12.145 94.5713 12.1118 94.672 12.0869C94.6903 12.1256 94.8276 12.3965 94.8581 12.4269C94.9466 12.5208 95.1754 12.5015 95.3432 12.5043L96.3592 12.5402C96.5088 12.5181 96.3928 12.4296 96.2769 12.1947C96.228 12.0952 96.1182 11.946 96.106 11.8437C96.6064 11.8686 96.4447 12.3467 96.9207 12.6148C97.2014 12.7724 97.6285 12.753 97.9489 12.8193C98.0923 12.8497 98.1594 12.9133 98.2509 12.9327C98.3852 12.8442 98.4889 12.5568 98.9863 12.2942C99.1998 12.1809 99.7704 11.946 100.036 11.9377C99.6819 12.3605 98.8795 12.6646 98.9039 13.0294C99.087 12.9658 100.844 11.9294 100.89 11.7995C100.735 11.7249 100.347 11.6005 100.146 11.5812C99.746 11.5425 99.6606 11.7166 99.4226 11.8492C99.2182 11.9626 99.0015 12.0621 98.7696 12.1781C97.8055 12.6646 98.2937 12.601 97.5095 11.8741C96.82 11.2357 95.7002 10.7575 94.6506 11.056C94.016 11.2357 93.5247 11.6337 93.0884 11.9791C92.826 12.1864 92.6582 12.3274 92.5026 12.648C92.3012 13.0626 92.2585 13.6816 92.5453 14.1045C93.3295 15.257 93.3569 15.4118 94.5987 16.4427C94.8245 16.6278 95.0656 16.8324 95.2944 17.012L96.7467 18.0927C96.9756 18.253 97.2807 18.4713 97.5065 18.6012C97.4821 18.7283 97.3448 18.8002 97.238 18.8886C95.8192 20.055 95.2944 20.8482 93.0305 20.8426C92.466 20.8426 91.9473 20.7791 91.3981 20.7514C91.2639 20.7459 90.9374 20.7708 90.8733 20.6934C90.8489 20.663 90.5133 19.1236 90.4828 18.9522C90.376 18.3303 90.3424 17.6228 90.5316 17.0314C90.7665 16.2934 91.4103 15.702 91.9168 15.1382C92.5057 14.4804 92.4935 14.6407 92.2616 14.2565L92.0632 13.9801C91.9076 14.0934 91.6056 14.4887 91.4622 14.6434C90.0922 16.1055 89.5094 17.117 89.9824 19.154L90.3363 20.6436C90.3638 20.7542 90.4095 21.0582 90.4797 21.1439C90.8367 21.1549 91.1327 21.1771 91.4713 21.2047C92.3165 21.2738 93.7078 21.2987 94.4797 21.166C95.929 20.9173 96.3287 20.569 97.2227 19.7952C97.421 19.621 98.1106 18.9356 98.3364 18.8803C98.4249 18.8582 98.6934 18.8527 98.8063 18.8389C98.971 18.8195 99.1205 18.7836 99.2578 18.7477C100.576 18.4022 101.378 16.9291 101.119 15.702L101.104 15.6964ZM88.4812 5.04755C88.1639 5.06966 87.813 5.03096 87.5293 5.10835C87.3126 5.16915 87.0258 5.33498 87.0014 5.57267C86.977 5.81588 87.273 5.99553 87.4682 6.0812C87.8191 6.23321 88.0693 6.22769 88.231 6.32718C88.2707 6.54829 87.9808 6.71688 88.2371 6.83849C88.408 6.91864 88.9328 7.00708 89.1921 7.08999C89.3233 7.13421 89.3721 7.16738 89.3752 7.3028C89.3844 7.64275 89.4179 7.63169 89.6529 7.80581C89.9427 8.01862 90.3546 8.24249 90.8764 8.14852C91.2578 8.07943 92.051 7.9744 92.1853 8.31159C92.1151 8.52993 91.6361 8.6847 91.5324 8.85053C91.3798 9.09374 91.9443 9.32037 92.1517 9.38118C92.942 9.61333 93.8085 8.95279 94.1838 9.12138C94.2235 9.32866 93.781 9.62163 94.1563 9.85378C94.3852 9.99474 94.794 10.0721 95.1266 10.0086C95.3737 9.96157 95.7124 9.79574 95.9382 9.70177C96.1335 9.61886 96.6766 9.32037 96.7345 9.68796C96.6705 9.78193 96.5026 9.91182 96.4081 9.9975C96.3379 10.0611 96.2982 10.097 96.2433 10.1467C96.1579 10.2214 96.1426 10.2711 96.1701 10.3927C96.2341 10.4922 97.2258 10.589 97.4638 10.6249C97.6804 10.658 97.9214 10.6802 98.1381 10.7161C98.3425 10.752 98.6873 10.7271 98.7544 10.8847C98.5683 10.9925 97.8726 11.2053 98.794 11.4126C99.0046 11.4595 99.2609 11.4623 99.4928 11.4374C100.103 11.3711 100.234 11.4872 100.722 11.6116C100.826 11.2965 100.86 11.3269 100.637 11.092C100.509 10.9565 100.442 10.8101 100.368 10.6083C100.28 10.3596 100.1 9.60781 99.9657 9.50002C99.807 9.57188 99.8253 9.72941 99.5843 9.7073C99.4348 9.51937 99.4409 8.59073 99.4165 8.27289C99.3768 7.78923 99.3219 7.32491 99.0229 7.04024C98.791 7.0126 98.7391 7.23094 98.6506 7.35808C98.5683 7.47692 98.4432 7.60958 98.3181 7.72014C97.5736 8.38345 97.8238 7.0126 97.6041 6.04528C97.3997 5.15533 96.2494 4.65509 96.0633 4.92594C95.9199 5.13322 95.984 5.61965 95.8467 5.73849C95.6056 5.94578 95.4805 5.37644 95.4195 5.21614C95.3585 5.05584 95.2822 4.90383 95.2029 4.75182C94.9313 4.23223 94.3028 3.57721 93.662 3.46942C93.0457 3.36439 93.1433 3.5855 93.0152 4.17971C92.9786 4.34554 92.9664 4.58876 92.8199 4.66891C92.4385 4.88172 92.0327 4.13549 91.5049 3.90886C91.154 3.75962 90.6414 3.70711 90.2814 3.87017C89.8329 4.07469 90.4919 4.50584 90.4462 4.8071C90.4217 4.97292 90.2265 4.8679 89.9214 4.78222C88.2676 4.32067 88.6948 4.7076 88.4782 5.05584L88.4812 5.04755ZM94.6872 6.73622C94.5896 6.71135 94.2357 6.48472 94.0068 6.38522C93.7505 6.27467 93.5522 6.18347 93.2898 6.09226C92.7955 5.92091 92.2463 5.75231 91.7063 5.64729C91.151 5.5395 90.4584 5.43448 89.8756 5.42619C89.4271 5.41789 88.2829 5.39578 88.0571 5.65005C88.292 5.64176 88.5331 5.6003 88.7894 5.59201C90.3424 5.53397 91.932 5.74126 93.3386 6.32995C93.5186 6.40457 93.5583 6.39904 93.601 6.49854C92.4111 6.45708 90.7207 6.76939 89.9275 7.21712C89.9763 7.24476 90.0403 7.23094 90.1075 7.2116C90.1776 7.19225 90.2204 7.17843 90.2875 7.15909C91.3767 6.84125 91.8497 6.72793 93.0915 6.68371C93.9549 6.65331 94.1014 6.65884 94.6445 7.00984C94.8489 7.13974 95.6178 7.68697 95.6727 7.81963C95.0961 7.83898 94.5164 7.93847 94.0129 8.0739C93.7353 8.14852 92.7833 8.48294 92.6674 8.61008C92.7376 8.64601 92.8199 8.61008 92.8962 8.58244C92.9786 8.55204 93.0274 8.52993 93.1128 8.49953C93.2532 8.44701 93.4088 8.38897 93.5583 8.34475C94.1838 8.14852 94.9527 7.98546 95.6239 7.96611C96.0206 7.95229 96.0602 8.09325 96.4203 8.38345C96.8993 8.76761 97.2715 9.04676 97.7658 9.41434C97.9916 9.58293 98.9893 10.3485 99.2212 10.3789C99.1968 10.2297 98.9771 10.1053 98.8581 10.0086L96.7711 8.38897C96.3745 8.07114 95.4195 7.36913 95.1449 7.05683C94.9069 6.78597 94.791 6.49577 94.5957 6.13924C94.434 5.84352 94.254 5.5091 94.1014 5.19403C94.016 5.01438 93.6956 4.24605 93.6376 4.20182C93.6285 4.21288 93.5827 4.18524 93.6407 4.37042C93.8848 5.13875 94.0221 5.38196 94.3882 6.11161C94.4736 6.2802 94.6567 6.57869 94.6903 6.73899L94.6872 6.73622ZM102.571 9.72665C102.733 9.65756 103.044 9.21535 103.188 9.03847L104.048 7.93295C104.14 7.81411 104.24 7.68144 104.341 7.55707C104.606 7.22542 104.954 6.78597 105.183 6.43497C105.278 6.29125 105.336 6.15859 105.519 6.09779C105.851 5.98724 106.355 5.97894 106.715 5.91538C107.011 5.86563 107.749 5.87945 108.063 5.90985C108.277 5.9292 108.478 5.95407 108.692 5.96789C108.829 5.97618 109.156 6.09226 109.253 5.95407C109.046 5.83246 107.786 5.74679 107.441 5.74402C107.096 5.74126 106.797 5.77442 106.471 5.7993C106.166 5.82141 105.854 5.90432 105.565 5.93749C105.601 5.76337 106.275 4.94529 106.449 4.738C106.831 4.28197 107.176 4.13549 107.825 3.9973C108.127 3.93374 108.426 3.86464 108.719 3.82042C109.479 3.70434 109.986 3.65736 110.77 3.67118C111.118 3.6767 111.496 3.74303 111.838 3.71263C111.612 3.48877 109.775 3.53575 109.54 3.54681C109.165 3.56339 108.323 3.69329 107.932 3.77896C107.801 3.8066 107.532 3.88675 107.407 3.88675C107.45 3.80937 107.459 3.81766 107.532 3.75409C107.572 3.72092 107.612 3.685 107.667 3.64077C107.92 3.42796 108.298 3.17646 108.594 3.00234C109.018 2.75083 109.504 2.51038 109.995 2.3031C110.999 1.883 112.146 1.54582 113.36 1.41039C112.86 1.22522 111.648 1.5624 111.166 1.6923C110.544 1.85813 109.864 2.13451 109.305 2.40259C108.369 2.85033 107.356 3.46666 106.62 4.16866C106.526 4.25986 106.382 4.45057 106.272 4.48373C106.285 4.26816 106.382 3.96137 106.422 3.73198C106.498 3.29806 106.776 1.57069 106.629 1.33024C106.526 1.35512 106.547 1.52094 106.544 1.60938C106.513 2.38877 106.324 3.20686 106.175 3.95308C106.074 4.46715 106.068 4.738 105.812 5.15257C105.598 5.49804 104.725 6.65607 104.481 6.98773C103.883 7.79752 103.264 8.65983 102.648 9.46133C102.614 9.50555 102.587 9.53595 102.562 9.58017C102.526 9.64926 102.538 9.65756 102.541 9.67967C102.547 9.72112 102.547 9.71283 102.559 9.73218L102.571 9.72665Z" fill="white"/>
    <path d="M26.4122 41.876C26.4122 42.996 26.1229 43.9387 25.5442 44.704C24.9656 45.4507 24.1816 46.02 23.1922 46.412C22.2216 46.804 21.1576 47 20.0002 47H10.3962V27.12H21.0362C21.9696 27.12 22.7722 27.372 23.4442 27.876C24.1349 28.3613 24.6576 28.996 25.0122 29.78C25.3856 30.5453 25.5722 31.348 25.5722 32.188C25.5722 33.14 25.3296 34.0453 24.8442 34.904C24.3589 35.7627 23.6496 36.3973 22.7162 36.808C23.8549 37.144 24.7509 37.7507 25.4042 38.628C26.0762 39.5053 26.4122 40.588 26.4122 41.876ZM22.5202 41.148C22.5202 40.644 22.4176 40.196 22.2122 39.804C22.0069 39.3933 21.7269 39.076 21.3722 38.852C21.0362 38.6093 20.6442 38.488 20.1962 38.488H14.2602V43.724H20.0002C20.4669 43.724 20.8869 43.612 21.2602 43.388C21.6522 43.1453 21.9602 42.828 22.1842 42.436C22.4082 42.044 22.5202 41.6147 22.5202 41.148ZM14.2602 30.424V35.436H19.4122C19.8416 35.436 20.2336 35.3333 20.5882 35.128C20.9429 34.9227 21.2229 34.6333 21.4282 34.26C21.6522 33.8867 21.7642 33.4387 21.7642 32.916C21.7642 32.412 21.6616 31.9733 21.4562 31.6C21.2696 31.2267 21.0082 30.9373 20.6722 30.732C20.3549 30.5267 19.9909 30.424 19.5802 30.424H14.2602ZM34.394 27.12H38.314L45.622 47H41.646L39.798 42.044H32.854L31.034 47H27.058L34.394 27.12ZM39.098 39.328L36.354 31.124L33.498 39.328H39.098ZM51.6665 34.232V47H47.8025V27.12H50.8825L61.1585 40.224V27.148H65.0225V47H61.8025L51.6665 34.232ZM71.3979 27.12L76.2979 36.472L81.2819 27.12H85.4539L78.2299 40.056V47H74.3939V40L67.1979 27.12H71.3979ZM90.9408 27.12H94.8608L102.169 47H98.1928L96.3448 42.044H89.4008L87.5808 47H83.6048L90.9408 27.12ZM95.6448 39.328L92.9008 31.124L90.0448 39.328H95.6448ZM115.947 32.328C115.817 32.1973 115.574 32.02 115.219 31.796C114.883 31.572 114.463 31.3573 113.959 31.152C113.474 30.9467 112.942 30.7693 112.363 30.62C111.785 30.452 111.197 30.368 110.599 30.368C109.554 30.368 108.761 30.564 108.219 30.956C107.697 31.348 107.435 31.8987 107.435 32.608C107.435 33.1493 107.603 33.5787 107.939 33.896C108.275 34.2133 108.779 34.484 109.451 34.708C110.123 34.932 110.963 35.1747 111.971 35.436C113.278 35.7533 114.407 36.1453 115.359 36.612C116.33 37.06 117.067 37.6573 117.571 38.404C118.094 39.132 118.355 40.1027 118.355 41.316C118.355 42.38 118.159 43.2947 117.767 44.06C117.375 44.8067 116.834 45.4133 116.143 45.88C115.453 46.3467 114.669 46.692 113.791 46.916C112.914 47.1213 111.981 47.224 110.991 47.224C110.002 47.224 109.013 47.1213 108.023 46.916C107.034 46.7107 106.082 46.4213 105.167 46.048C104.253 45.656 103.413 45.1893 102.647 44.648L104.355 41.316C104.523 41.484 104.822 41.708 105.251 41.988C105.681 42.2493 106.203 42.52 106.819 42.8C107.435 43.0613 108.107 43.2853 108.835 43.472C109.563 43.6587 110.301 43.752 111.047 43.752C112.093 43.752 112.886 43.5747 113.427 43.22C113.969 42.8653 114.239 42.3613 114.239 41.708C114.239 41.1107 114.025 40.644 113.595 40.308C113.166 39.972 112.569 39.6827 111.803 39.44C111.038 39.1787 110.133 38.8987 109.087 38.6C107.837 38.2453 106.791 37.8533 105.951 37.424C105.111 36.976 104.486 36.416 104.075 35.744C103.665 35.072 103.459 34.232 103.459 33.224C103.459 31.8613 103.777 30.7227 104.411 29.808C105.065 28.8747 105.942 28.1747 107.043 27.708C108.145 27.2227 109.367 26.98 110.711 26.98C111.645 26.98 112.522 27.0827 113.343 27.288C114.183 27.4933 114.967 27.764 115.695 28.1C116.423 28.436 117.077 28.8 117.655 29.192L115.947 32.328ZM136.143 30.508H129.787V47H125.951V30.508H119.595V27.12H136.143V30.508ZM146.63 47.14C145.174 47.14 143.849 46.86 142.654 46.3C141.478 45.74 140.461 44.984 139.602 44.032C138.762 43.0613 138.109 41.9787 137.642 40.784C137.176 39.5707 136.942 38.3293 136.942 37.06C136.942 35.7347 137.185 34.4747 137.67 33.28C138.174 32.0667 138.856 30.9933 139.714 30.06C140.592 29.108 141.618 28.3613 142.794 27.82C143.989 27.26 145.296 26.98 146.714 26.98C148.152 26.98 149.458 27.2693 150.634 27.848C151.829 28.4267 152.846 29.2013 153.686 30.172C154.526 31.1427 155.18 32.2253 155.646 33.42C156.113 34.6147 156.346 35.8467 156.346 37.116C156.346 38.4227 156.104 39.6827 155.618 40.896C155.133 42.0907 154.452 43.164 153.574 44.116C152.716 45.0493 151.689 45.7867 150.494 46.328C149.318 46.8693 148.03 47.14 146.63 47.14ZM140.862 37.06C140.862 37.9187 140.993 38.7493 141.254 39.552C141.516 40.3547 141.889 41.0733 142.374 41.708C142.878 42.324 143.485 42.8187 144.194 43.192C144.922 43.5467 145.744 43.724 146.658 43.724C147.592 43.724 148.422 43.5373 149.15 43.164C149.878 42.772 150.485 42.2587 150.97 41.624C151.456 40.9707 151.82 40.252 152.062 39.468C152.324 38.6653 152.454 37.8627 152.454 37.06C152.454 36.2013 152.314 35.38 152.034 34.596C151.773 33.7933 151.39 33.084 150.886 32.468C150.401 31.8333 149.794 31.3387 149.066 30.984C148.357 30.6107 147.554 30.424 146.658 30.424C145.706 30.424 144.866 30.62 144.138 31.012C143.429 31.3853 142.832 31.8893 142.346 32.524C141.861 33.1587 141.488 33.868 141.226 34.652C140.984 35.436 140.862 36.2387 140.862 37.06ZM159.31 47V27.12H168.102C169.017 27.12 169.857 27.3067 170.622 27.68C171.406 28.0533 172.078 28.5573 172.638 29.192C173.217 29.8267 173.656 30.536 173.954 31.32C174.272 32.104 174.43 32.9067 174.43 33.728C174.43 34.568 174.281 35.38 173.982 36.164C173.702 36.9293 173.292 37.6013 172.75 38.18C172.209 38.7587 171.574 39.2067 170.846 39.524L175.382 47H171.126L167.038 40.336H163.174V47H159.31ZM163.174 36.948H168.018C168.504 36.948 168.933 36.808 169.306 36.528C169.68 36.2293 169.978 35.8373 170.202 35.352C170.426 34.8667 170.538 34.3253 170.538 33.728C170.538 33.0933 170.408 32.5427 170.146 32.076C169.885 31.5907 169.549 31.208 169.138 30.928C168.746 30.648 168.317 30.508 167.85 30.508H163.174V36.948ZM191.735 43.612V47H177.931V27.12H191.483V30.508H181.795V35.296H190.167V38.432H181.795V43.612H191.735Z" fill="white"/>
</svg>
