<svg width="47" height="47" fill="none" xmlns="http://www.w3.org/2000/svg"><path d="M10.693 6.945a3.58 3.58 0 10-7.161 0 3.58 3.58 0 007.16 0zm-5.73 0a2.149 2.149 0 114.298 0 2.149 2.149 0 01-4.297 0zm38.673 29.362a3.58 3.58 0 10-7.16 0 3.58 3.58 0 007.16 0zm-5.73 0a2.148 2.148 0 114.298 0 2.148 2.148 0 01-4.297 0zM8.544 20.552a.716.716 0 00-.716.716v12.174a.716.716 0 00.716.716h14.323a.716.716 0 00.716-.716V21.268a.716.716 0 00-.716-.716H8.544zm8.594 1.432v2.865h-2.865v-2.865h2.865zm5.013 10.742H9.261V21.984h3.58v3.58a.716.716 0 00.716.717h4.297a.716.716 0 00.716-.716v-3.581h3.581v10.742z" fill="#397345"/><path d="M14.99 28.43h-4.297a.716.716 0 000 1.432h4.297a.717.717 0 000-1.432zm-2.149 2.148h-2.148a.716.716 0 100 1.432h2.148a.716.716 0 100-1.432zM42.92 44.901h-1.097c1.76-1.82 4.677-5.329 4.677-8.593a6.445 6.445 0 10-12.89 0c0 3.264 2.917 6.772 4.676 8.593H37.19a.716.716 0 000 1.433h5.73a.716.716 0 100-1.433zm-2.865-13.606a5.018 5.018 0 015.013 5.013c0 3.228-3.683 7.056-5.013 8.333-1.33-1.276-5.013-5.1-5.013-8.333a5.019 5.019 0 015.013-5.013zM4.247 15.54a.716.716 0 100 1.431h5.729a.716.716 0 100-1.432H8.88c1.76-1.821 4.677-5.329 4.677-8.594a6.445 6.445 0 00-12.891 0c0 3.265 2.918 6.773 4.677 8.594H4.247zM7.11 1.931a5.019 5.019 0 015.013 5.013c0 3.229-3.683 7.056-5.013 8.333-1.33-1.276-5.013-5.1-5.013-8.333A5.019 5.019 0 017.11 1.931zm5.015 14.324a.716.716 0 00.716.716h15.755a2.148 2.148 0 012.149 2.149v11.458a2.149 2.149 0 01-2.149 2.149h-3.58a.716.716 0 100 1.432h3.58a3.585 3.585 0 003.581-3.58v-11.46a3.585 3.585 0 00-3.58-3.58H12.84a.716.716 0 00-.716.716zm22.2 28.646H3.53a1.432 1.432 0 01-1.433-1.432V35.59a1.432 1.432 0 011.433-1.432h2.864a.716.716 0 100-1.432H3.531A2.864 2.864 0 00.666 35.59v7.878a2.865 2.865 0 002.865 2.864h30.794a.716.716 0 100-1.432z" fill="#397345"/></svg>