<svg width="45" height="45" fill="none" xmlns="http://www.w3.org/2000/svg"><path d="M43.977 29.485h-.69v-6.21a.69.69 0 00-.69-.69h-3.451v-6.212a.69.69 0 00-.69-.69h-8.282a.69.69 0 00-.69.69v6.211h-3.45a.69.69 0 00-.69.69v6.211h-1.38V24.29a3.432 3.432 0 00-1.908-3.086l-4.994-2.497v-2.172a5.527 5.527 0 001.89-2.922h1.23a1.713 1.713 0 001.711-1.712v-.717a1.701 1.701 0 00-.464-1.164 7.043 7.043 0 001.147-3.23c.098-1.768-.784-3.37-2.546-4.633A9.204 9.204 0 0014.628.501h-3.776a2.765 2.765 0 00-2.692 2.14 2.765 2.765 0 00-2.14 2.69v4.486a1.705 1.705 0 00-.69 1.367v.717a1.713 1.713 0 001.712 1.712h1.23a5.526 5.526 0 001.89 2.922v2.172l-4.994 2.497A3.433 3.433 0 003.26 24.29v5.195H1.19a.69.69 0 00-.69.69v4.141a.69.69 0 00.69.69h1.38v8.971a.69.69 0 00.69.69h38.646a.69.69 0 00.69-.69v-8.97h1.38a.69.69 0 00.69-.691v-4.14a.69.69 0 00-.69-.69zm-2.07 0h-6.902v-5.52h1.38v2.07a.69.69 0 00.69.69h2.76a.69.69 0 00.691-.69v-2.07h1.38v5.52zm-2.761-5.52v1.38h-1.38v-1.38h1.38zm-4.14-6.902v1.38h-1.381v-1.38h1.38zm-4.141 0h1.38v2.07a.69.69 0 00.69.69h2.76a.69.69 0 00.69-.69v-2.07h1.38v5.521h-6.9v-5.52zm0 6.902v1.38h-1.38v-1.38h1.38zm-4.141 0h1.38v2.07a.69.69 0 00.69.69h2.76a.69.69 0 00.69-.69v-2.07h1.381v5.52h-6.901v-5.52zM20.513 11.9a.332.332 0 01-.331.332h-1.05v-1.38h1.05a.332.332 0 01.331.33v.718zM8.781 3.951a.69.69 0 00.69-.69 1.38 1.38 0 011.38-1.38h3.777a7.831 7.831 0 014.6 1.4c1.38.987 2.041 2.142 1.97 3.434-.046.843-.3 1.403-1.044 2.757h-1.021v-.69a.69.69 0 00-.69-.69c-4.552 0-6.263-2.362-6.331-2.459a.69.69 0 00-1.012-.142C9.613 6.73 8.906 6.721 8.934 6.728a.69.69 0 00-.843.674v2.07h-.69v-4.14a1.38 1.38 0 011.38-1.38zm-1.739 8.282a.332.332 0 01-.331-.332v-.717a.332.332 0 01.331-.332h1.05v1.38h-1.05zm2.43 0V8.018a5.988 5.988 0 001.982-1.049c.828.833 2.785 2.312 6.299 2.485v2.779a4.14 4.14 0 01-8.282 0zm4.14 5.52a5.48 5.48 0 002.07-.406v1.787a2.07 2.07 0 11-4.14 0v-1.787a5.48 5.48 0 002.07.406zM4.641 24.29a2.061 2.061 0 011.144-1.851l4.554-2.278a3.427 3.427 0 006.552 0l4.552 2.278a2.06 2.06 0 011.14 1.851v5.195h-3.45v-3.45a.69.69 0 00-1.38 0v3.45H9.47v-3.45a.69.69 0 10-1.38 0v3.45H4.64V24.29zm36.575 18.997H3.951v-8.28h37.265v8.28zm2.07-9.661H1.88v-2.76h41.406v2.76z" fill="#397345"/></svg>