<svg width="46" height="32" fill="none" xmlns="http://www.w3.org/2000/svg"><path d="M2.011.833A1.51 1.51 0 00.5 2.341v23.787a1.51 1.51 0 001.511 1.508h3.55l.228-1.34H2.011a.168.168 0 01-.168-.168V2.34c0-.092.075-.167.168-.167h26.793c.093 0 .168.075.168.167v23.954h-15.16l.336 1.34h15.495c.371 0 .672-.3.672-.67V2.342A1.51 1.51 0 0028.804.833H2.01z" fill="#397345"/><path fill-rule="evenodd" clip-rule="evenodd" d="M29.644 20.563H1.172v-1.34h28.472v1.34z" fill="#397345"/><path d="M29.643 26.295v1.34h2.135v-1.34h-2.135zm0-18.463h9.439c.37 0 .71.202.886.527l3.763 6.94a3.51 3.51 0 01.425 1.674v8.317c0 .555-.451 1.005-1.008 1.005H39.79v1.34h3.358a2.348 2.348 0 002.351-2.345v-8.317c0-.808-.202-1.603-.587-2.313L41.15 7.72a2.352 2.352 0 00-2.067-1.229h-9.44v1.34z" fill="#397345"/><path fill-rule="evenodd" clip-rule="evenodd" d="M31.818 9.99c0-.37.301-.67.672-.67h6.169c.254 0 .486.143.6.37l3.322 6.601a.67.67 0 01-.6.971H32.49a.67.67 0 01-.672-.67V9.991zm1.344.67v5.262h7.73l-2.647-5.261h-5.083z" fill="#397345"/><path d="M32.49 19.422c0-.521.423-.944.945-.944h1.907a.944.944 0 110 1.887h-1.907a.944.944 0 01-.945-.943z" fill="#397345"/><path fill-rule="evenodd" clip-rule="evenodd" d="M9.987 30.326a3.271 3.271 0 003.274-3.268 3.27 3.27 0 00-3.274-3.267 3.271 3.271 0 00-3.275 3.267 3.271 3.271 0 003.275 3.268zm0 1.34a4.613 4.613 0 004.617-4.608 4.613 4.613 0 00-4.617-4.608 4.613 4.613 0 00-4.618 4.608 4.613 4.613 0 004.618 4.609z" fill="#397345"/><path fill-rule="evenodd" clip-rule="evenodd" d="M9.988 27.813a.755.755 0 10.001-1.51.755.755 0 00-.001 1.51zm0 1.34a2.096 2.096 0 002.098-2.095c0-1.156-.94-2.094-2.098-2.094-1.16 0-2.1.938-2.1 2.095 0 1.156.94 2.094 2.1 2.094zm26.026 1.173a3.27 3.27 0 003.274-3.268 3.27 3.27 0 00-3.274-3.267 3.271 3.271 0 00-3.274 3.267 3.271 3.271 0 003.274 3.268zm0 1.34a4.613 4.613 0 004.618-4.608 4.613 4.613 0 00-4.618-4.608 4.613 4.613 0 00-4.618 4.608 4.613 4.613 0 004.618 4.609z" fill="#397345"/><path fill-rule="evenodd" clip-rule="evenodd" d="M36.013 27.813a.755.755 0 10.002-1.51.755.755 0 00-.002 1.51zm0 1.34c1.16 0 2.099-.938 2.099-2.095 0-1.156-.94-2.094-2.099-2.094-1.16 0-2.099.938-2.099 2.095 0 1.156.94 2.094 2.099 2.094zM10.94 7.162V1.504h1.343v4.988h5.3V1.504h1.343v5.658c0 .37-.3.67-.671.67H11.61a.67.67 0 01-.671-.67z" fill="#397345"/></svg>