<svg width="60" height="56" fill="none" xmlns="http://www.w3.org/2000/svg"><path d="M0 5a5 5 0 015-5h55v51a5 5 0 01-5 5H0V5z" fill="transparent"/><path fill-rule="evenodd" clip-rule="evenodd" d="M16 16a1 1 0 011-1h4.727a1 1 0 01.983.816l1.03 5.517H43a1 1 0 01.984 1.175l-1.892 10.634a3.57 3.57 0 01-1.166 2.055 3.264 3.264 0 01-2.19.802H27.268a3.264 3.264 0 01-2.19-.802 3.57 3.57 0 01-1.167-2.054l-1.976-10.58a.979.979 0 01-.016-.09L20.897 17H17a1 1 0 01-1-1zm8.114 7.333l1.764 9.445c.068.37.253.687.506.905.251.217.554.323.854.317h11.528c.3.006.603-.1.854-.317a1.57 1.57 0 00.505-.902v-.003l1.681-9.445H24.114zM37 42a2 2 0 114 0 2 2 0 01-4 0zm-12 0a2 2 0 114 0 2 2 0 01-4 0z" fill="#397345"/><path fill-rule="evenodd" clip-rule="evenodd" d="M59 1H5a4 4 0 00-4 4v50h54a4 4 0 004-4V1zM5 0a5 5 0 00-5 5v51h55a5 5 0 005-5V0H5z" fill="#397345"/></svg>