<svg width="60" height="56" fill="none" xmlns="http://www.w3.org/2000/svg"><path d="M0 5a5 5 0 015-5h55v51a5 5 0 01-5 5H0V5z" fill="#F05A00"/><path fill-rule="evenodd" clip-rule="evenodd" d="M35.02 16.727A12.333 12.333 0 1042.334 28v-1.227a1 1 0 112 0V28a14.335 14.335 0 01-19.3 13.438 14.333 14.333 0 1110.8-26.538 1 1 0 01-.814 1.827z" fill="#fff"/><path fill-rule="evenodd" clip-rule="evenodd" d="M44.04 16.626a1 1 0 010 1.414L30.709 31.387a1 1 0 01-1.415 0l-4-4a1 1 0 011.414-1.414L30 29.266l12.626-12.64a1 1 0 011.414 0z" fill="#fff"/></svg>