<svg width="70" height="24" fill="none" xmlns="http://www.w3.org/2000/svg"><rect width="70" height="24" rx="2" fill="#fff"/><rect width="70" height="24" rx="2" fill="#CEAE64"/><path d="M24.275 7.06l3.248 4.326 3.234-4.326h1.106l-3.808 5.04 3.696 4.9h-1.106l-3.122-4.186L24.387 17h-1.12l3.696-4.9-3.808-5.04h1.12zM32.967 17V9.72h.952v5.992l4.438-6.006h.854V17h-.952v-5.894L33.89 17h-.924zm10.146 0v-6.44H40.51v-.854h6.16v.854h-2.604V17h-.952z" fill="#fff"/><path d="M24.275 7.06l3.248 4.326 3.234-4.326h1.106l-3.808 5.04 3.696 4.9h-1.106l-3.122-4.186L24.387 17h-1.12l3.696-4.9-3.808-5.04h1.12zM32.967 17V9.72h.952v5.992l4.438-6.006h.854V17h-.952v-5.894L33.89 17h-.924zm10.146 0v-6.44H40.51v-.854h6.16v.854h-2.604V17h-.952z" fill="#fff"/></svg>