<svg width="70" height="24" fill="none" xmlns="http://www.w3.org/2000/svg"><rect width="70" height="24" rx="2" fill="#4CAF50"/><path d="M15.086 7.06V17h-.966v-4.648H8.226V17h-.98V7.06h.98v4.424h5.894V7.06h.966zm5.299 10.08a3.592 3.592 0 01-1.456-.294 3.756 3.756 0 01-1.148-.826 3.995 3.995 0 01-.742-1.204 3.952 3.952 0 01-.266-1.442c0-.523.088-1.008.266-1.456.177-.457.429-.859.756-1.204.326-.355.709-.63 1.148-.826a3.452 3.452 0 011.456-.308 3.36 3.36 0 011.442.308 3.47 3.47 0 011.148.826c.326.345.578.747.756 1.204.177.448.266.933.266 1.456 0 .504-.09.985-.266 1.442-.178.448-.43.85-.756 1.204-.318.345-.7.62-1.148.826a3.53 3.53 0 01-1.456.294zm-2.646-3.752c0 .541.116 1.036.35 1.484.242.439.564.789.966 1.05a2.45 2.45 0 001.33.378c.485 0 .928-.13 1.33-.392.4-.261.723-.616.966-1.064.242-.457.364-.952.364-1.484 0-.541-.122-1.036-.364-1.484a2.879 2.879 0 00-.966-1.064 2.387 2.387 0 00-1.33-.392c-.486 0-.93.135-1.33.406-.392.27-.71.63-.952 1.078a3.013 3.013 0 00-.364 1.484zM25.589 17V9.706h3.64c.41 0 .756.089 1.036.266.28.168.49.387.63.658.15.27.224.56.224.868 0 .392-.094.747-.28 1.064a1.76 1.76 0 01-.812.7c.42.121.76.34 1.022.658.261.317.392.7.392 1.148 0 .392-.098.733-.294 1.022-.187.29-.448.513-.784.672a2.565 2.565 0 01-1.134.238h-3.64zm.91-.686H29.2c.242 0 .462-.06.658-.182.205-.13.364-.299.476-.504a1.302 1.302 0 00.014-1.302 1.335 1.335 0 00-.448-.49 1.155 1.155 0 00-.644-.182h-2.758v2.66zm0-3.318h2.478c.242 0 .457-.065.644-.196a1.34 1.34 0 00.434-.504 1.43 1.43 0 00.154-.644c0-.336-.112-.63-.336-.882a1.05 1.05 0 00-.84-.378h-2.534v2.604zM33.08 17V9.72h.952v5.992l4.438-6.006h.854V17h-.952v-5.894L34.005 17h-.924zm8.312 0V9.706h.952v3.136h4.172V9.706h.952V17h-.952v-3.304h-4.172V17h-.952zm8.163 0V9.706h.952v3.122h1.091l2.45-3.122h1.093l-2.787 3.542L55.492 17h-1.12l-2.773-3.29h-1.091V17h-.953zm6.672-2.1c0-.457.13-.85.392-1.176.261-.336.62-.593 1.078-.77.466-.187 1.003-.28 1.61-.28.354 0 .723.028 1.106.084.382.056.723.14 1.022.252v-.616c0-.616-.182-1.106-.546-1.47-.364-.364-.868-.546-1.512-.546-.392 0-.78.075-1.162.224-.374.14-.766.35-1.176.63l-.364-.672c.476-.327.942-.57 1.4-.728a4.031 4.031 0 011.4-.252c.896 0 1.605.257 2.128.77.522.513.784 1.223.784 2.128v3.374c0 .13.028.229.084.294.056.056.144.089.266.098V17c-.103.01-.192.019-.266.028a.496.496 0 01-.168 0c-.234-.01-.411-.084-.532-.224a.744.744 0 01-.196-.448l-.014-.532c-.327.42-.752.747-1.274.98a4.016 4.016 0 01-1.596.336 2.75 2.75 0 01-1.274-.294 2.39 2.39 0 01-.882-.812 2.178 2.178 0 01-.308-1.134zm4.886.56a1.95 1.95 0 00.238-.378.786.786 0 00.084-.322v-1.064a5.79 5.79 0 00-2.016-.378c-.682 0-1.232.135-1.652.406-.42.27-.63.64-.63 1.106 0 .27.07.527.21.77.14.233.345.43.616.588.27.15.588.224.952.224a3.06 3.06 0 001.274-.266c.401-.177.709-.406.924-.686z" fill="#fff"/></svg>