<svg width="70" height="24" fill="none" xmlns="http://www.w3.org/2000/svg"><rect width="70" height="24" rx="2" fill="#fff"/><rect width="70" height="24" rx="2" fill="#DC3434"/><path d="M19.626 7.06h.826l4.13 9.94h-1.036l-1.288-3.108h-4.466L16.518 17h-1.05l4.158-9.94zm2.408 6.062l-2.002-4.914-2.03 4.914h4.032zM25.797 17V9.706h.952v3.122h1.092l2.45-3.122h1.092l-2.786 3.542L31.733 17h-1.12l-2.772-3.29h-1.092V17h-.952zm13.097 1.694V17H33.07V9.706h.952v6.454h3.78V9.706h.952v6.454h.994v2.534h-.854zM41.178 17V9.72h.952v5.992l4.438-6.006h.854V17h-.952v-5.894L42.102 17h-.924zm7.78 0l2.17-2.982a1.918 1.918 0 01-1.204-.644c-.299-.364-.448-.859-.448-1.484 0-.42.098-.793.294-1.12.196-.327.471-.588.826-.784.364-.196.789-.294 1.274-.294h2.786V17h-.952v-2.828H52.08L50.022 17h-1.064zm2.898-3.556h1.848v-2.996h-1.68c-.485 0-.873.14-1.162.42-.29.27-.434.616-.434 1.036 0 .43.117.793.35 1.092.243.299.602.448 1.078.448z" fill="#fff"/><path d="M19.626 7.06h.826l4.13 9.94h-1.036l-1.288-3.108h-4.466L16.518 17h-1.05l4.158-9.94zm2.408 6.062l-2.002-4.914-2.03 4.914h4.032zM25.797 17V9.706h.952v3.122h1.092l2.45-3.122h1.092l-2.786 3.542L31.733 17h-1.12l-2.772-3.29h-1.092V17h-.952zm13.097 1.694V17H33.07V9.706h.952v6.454h3.78V9.706h.952v6.454h.994v2.534h-.854zM41.178 17V9.72h.952v5.992l4.438-6.006h.854V17h-.952v-5.894L42.102 17h-.924zm7.78 0l2.17-2.982a1.918 1.918 0 01-1.204-.644c-.299-.364-.448-.859-.448-1.484 0-.42.098-.793.294-1.12.196-.327.471-.588.826-.784.364-.196.789-.294 1.274-.294h2.786V17h-.952v-2.828H52.08L50.022 17h-1.064zm2.898-3.556h1.848v-2.996h-1.68c-.485 0-.873.14-1.162.42-.29.27-.434.616-.434 1.036 0 .43.117.793.35 1.092.243.299.602.448 1.078.448z" fill="#fff"/></svg>