<svg width="24" height="21" viewBox="0 0 24 21" fill="none" xmlns="http://www.w3.org/2000/svg">
<path fill-rule="evenodd" clip-rule="evenodd" d="M14.4629 0.493244C15.2518 0.166397 16.0972 -0.00183105 16.9511 -0.00183105C17.8049 -0.00183105 18.6504 0.166398 19.4392 0.493244C20.2279 0.82003 20.9445 1.29897 21.548 1.90272C22.1518 2.50627 22.6311 3.22318 22.9578 4.01185C23.2847 4.80066 23.4529 5.64614 23.4529 6.49999C23.4529 7.35384 23.2847 8.19933 22.9578 8.98814C22.631 9.77688 22.152 10.4935 21.5482 11.0971C21.5481 11.0972 21.5483 11.097 21.5482 11.0971L12.7082 19.9371C12.3177 20.3276 11.6845 20.3276 11.294 19.9371L2.45399 11.0971C1.23476 9.87787 0.549805 8.22424 0.549805 6.49999C0.549805 4.77574 1.23476 3.12212 2.45399 1.90289C3.67322 0.683659 5.32685 -0.00129628 7.0511 -0.00129628C8.77535 -0.00129628 10.429 0.683659 11.6482 1.90289L12.0011 2.25578L12.3538 1.90305C12.3539 1.903 12.3538 1.90311 12.3538 1.90305C12.9574 1.29923 13.6742 0.82006 14.4629 0.493244ZM16.9511 1.99817C16.36 1.99817 15.7746 2.11463 15.2285 2.34091C14.6824 2.56719 14.1863 2.89885 13.7684 3.31694L12.7082 4.3771C12.3177 4.76763 11.6845 4.76763 11.294 4.3771L10.234 3.3171C9.38983 2.47295 8.24491 1.9987 7.0511 1.9987C5.85728 1.9987 4.71236 2.47295 3.8682 3.3171C3.02405 4.16126 2.5498 5.30618 2.5498 6.49999C2.5498 7.69381 3.02405 8.83873 3.8682 9.68289L12.0011 17.8158L20.134 9.68289C20.5521 9.265 20.8839 8.76866 21.1102 8.22256C21.3365 7.67645 21.4529 7.09112 21.4529 6.49999C21.4529 5.90887 21.3365 5.32353 21.1102 4.77743C20.8839 4.23133 20.5522 3.73516 20.1342 3.31727C19.7163 2.89918 19.2198 2.56719 18.6737 2.34091C18.1276 2.11463 17.5422 1.99817 16.9511 1.99817Z" fill="#DEDBDB"/>
</svg>
